#N canvas 822 328 698 662 10;
#X obj 314 209 tgl 15 0 empty \$0-start start 17 7 0 10 -257985 -1
-1 0 1;
#X obj 69 111 tgl 15 0 empty \$0-manualTempo manualTempo 17 7 0 10
-257985 -1 -1 0 1;
#X msg 438 169 setVolume \$1;
#X obj 39 475 hsl 128 15 0 1 0 0 empty empty setPosition -2 -8 0 10
-257985 -1 -1 0 0;
#X obj 184 150 hsl 128 15 -1 1 0 0 empty \$0-manualTempoSlider manualTempoSlider
-2 -8 0 10 -257985 -1 -1 6985 1;
#X obj 260 255 bng 15 250 50 0 empty \$0-stop stop 17 7 0 10 -257985
-1 -1;
#X obj 438 150 nbx 5 14 -1e+37 1e+37 0 0 empty \$0-setVolume setVolume
0 -8 0 10 -257985 -1 -1 70 256;
#X obj 535 150 nbx 5 14 -1e+37 1e+37 0 0 empty \$0-setTempo setTempo
0 -8 0 10 -257985 -1 -1 100 256;
#X msg 535 169 setTempo \$1;
#X obj 469 250 r \$0-video;
#X msg 471 549 glsl \$1;
#X obj 471 504 text get \$0-shaderList;
#X obj 471 485 nbx 5 14 0 24 0 1 empty \$0-effectNumber1 empty 0 -8
0 10 -228856 -1 -1 8 256;
#X obj 471 582 text define -k \$0-shaderList;
#A set Bleach \; Bokeh \; CircleWarp \; Contrast \; GaussianBlur \;
Grain \; GreyScale \; HSBShift \; Invert \; Kaleidoscope \; Kaleidoscope2
\; MetaImage \; MosaicColor \; NoiseWarp \; Pixelate \; PositionShift
\; RGBShift \; VertTiltShift \;;
#X obj 516 414 f;
#X obj 471 412 f;
#X obj 471 434 + 1;
#X obj 516 435 - 1;
#X obj 471 322 ofKeyPressed 50;
#X symbolatom 471 526 10 0 0 0 - - -;
#X obj 516 456 mod 18;
#X obj 471 456 mod 18;
#X obj 516 391 r \$0-shaderMinuus;
#X obj 471 368 r \$0-shaderPlus;
#X obj 536 480 s \$0-subViewNum;
#X obj 545 526 s \$0-shaderName;
#X obj 260 358 ofelia define -k \$0-videoPlayer;
#A __set if type(window) ~= "userdata" then \; window = ofWindow()
\; end \; \; local canvas = ofCanvas(this) \; local clock = ofClock(this
\, "setup") \; local shaderDir = canvas:getDir() .. "/data/" \; local
videoPlayer = ofVideoPlayer() \; local shader1 = ofShader() \; local
fbo = ofFbo() \; local fbo2 = ofFbo() \; local outputList = {} \; local
lastPosition = 0 \; \; function ofelia.new() \; ofWindow.addListener("setup"
\, this) \; ofWindow.addListener("update" \, this) \; ofWindow.addListener("draw"
\, this) \; ofWindow.addListener("exit" \, this) \; window:setPosition(30
\, 100) \; window:setSize(840 \, 860) \; if ofWindow.exists then \;
clock:delay(0) \; else \; window:create() \; end \; end \; \; function
ofelia.free() \; window:destroy() \; ofWindow.removeListener("setup"
\, this) \; ofWindow.removeListener("update" \, this) \; ofWindow.removeListener("draw"
\, this) \; ofWindow.removeListener("exit" \, this) \; end \; \; function
ofelia.setup() \; ofBackground(0) \; ofSetWindowTitle("Video Player")
\; videoPlayer:setLoopState(OF_LOOP_NORMAL) \; videoPlayer:load("dummy")
\; fbo:allocate(800 \, 600) \; fbo2:allocate(800 \, 600) \; ofSetFrameRate(25)
\; end \; \; function ofelia.glsl(s) \; shader1:load(shaderDir .. s)
\; end \; \; function ofelia.setPosition(f) \; videoPlayer:setPosition(f)
\; end \; \; function ofelia.setTempo(f) \; videoPlayer:setSpeed(f
/ 100) \; end \; \; function ofelia.stop() \; videoPlayer:stop() \;
videoPlayer:setPosition(0) \; end \; \; function ofelia.start(f) \;
if f == 1 then \; videoPlayer:play() \; else \; videoPlayer:stop()
\; end \; end \; \; function ofelia.setVolume(f) \; videoPlayer:setVolume(f
/ 100) \; end \; \; function ofelia.loadVideo() \; videoPlayer:load("dummy")
\; end \; \; function ofelia.update() \; if videoPlayer:getPosition()
~= lastPosition and videoPlayer:isLoaded() == true then \; lastPosition
= videoPlayer:getPosition() \; videoPlayer:update() \; fbo:beginFbo()
\; ofClear(255 \, 255 \, 255 \, 0) \; videoPlayer:draw(0 \, 0 \, 800
\, 600) \; fbo:endFbo() \; end \; end \; \; function ofelia.bang()
\; local mouseX = ofGetMouseX() \; local mouseY = ofGetMouseY() \;
shader1:beginShader() \; shader1:setUniformTexture("Tex0" \, fbo:getTexture()
\, 0) \; shader1:setUniform1f("time" \, ofGetElapsedTimeMillis()) \;
shader1:setUniform2f("resolution" \, 800 \, 600) \; shader1:setUniform2f("center"
\, 800 / 2 \, 600 / 2) \; shader1:setUniform2f("mouse" \, mouseX \,
mouseY) \; \; shader1:setUniform1f("Bleach_Opacity" \, ofelia.Bleach_Opacity)
\; shader1:setUniform1f("Bokeh_Bias" \, ofelia.Bokeh_Bias / 100) \;
shader1:setUniform1f("Bokeh_Focus" \, ofelia.Bokeh_Focus / 100) \;
shader1:setUniform1f("Contrast_Contrast" \, ofelia.Contrast_Contrast
/ 100) \; shader1:setUniform1f("Contrast_Multiple" \, ofelia.Contrast_Multiple
/ 100) \; shader1:setUniform1f("Contrast_Brightness" \, ofelia.Contrast_Brightness
/ 100) \; shader1:setUniform1f("CircleWarp_Rotation" \, ofelia.CircleWarp_Rotation
/ 100) \; shader1:setUniform1f("CircleWarp_Radius" \, ofelia.CircleWarp_Radius
/ 200) \; shader1:setUniform1f("GaussianBlur_Radius" \, ofelia.GaussianBlur_Radius
/ 100) \; shader1:setUniform1f("Grain_Intensity" \, ofelia.Grain_Intensity)
\; shader1:setUniform1f("GreyScale_Factor" \, ofelia.GreyScale_Factor
/ 100) \; shader1:setUniform1f("HSBShift_Hue" \, ofelia.HSBShift_Hue
/ 100) \; shader1:setUniform1f("HSBShift_Brightness" \, ofelia.HSBShift_Brightness
/ 100) \; shader1:setUniform1f("HSBShift_Saturation" \, ofelia.HSBShift_Saturation
/ 100) \; shader1:setUniform1f("Kaleidoscope_Segments" \, ofelia.Kaleidoscope_Segments)
\; shader1:setUniform1f("Kaleidoscope2_Sides" \, ofelia.Kaleidoscope2_Sides)
\; shader1:setUniform1f("Kaleidoscope2_Angle" \, ofelia.Kaleidoscope2_Angle
/ 100) \; shader1:setUniform1f("Kaleidoscope2_SlideX" \, ofelia.Kaleidoscope2_SlideX
/ 100) \; shader1:setUniform1f("Kaleidoscope2_SlideY" \, ofelia.Kaleidoscope2_SlideY
/ 100) \; shader1:setUniform1f("MetaImage_MosaicNumber" \, ofelia.MetaImage_MosaicNumber)
\; shader1:setUniform1f("MetaImage_ColorFade" \, ofelia.MetaImage_ColorFade
/ 100) \; shader1:setUniform1f("MosaicColor_MosaicNumber" \, ofelia.MosaicColor_MosaicNumber)
\; shader1:setUniform1f("NoiseWarp_Frequency" \, ofelia.NoiseWarp_Frequency)
\; shader1:setUniform1f("NoiseWarp_Amplitude" \, ofelia.NoiseWarp_Amplitude
/ 100) \; shader1:setUniform1f("NoiseWarp_Speed" \, ofelia.NoiseWarp_Speed
/ 10000) \; shader1:setUniform1f("Pixelate_XPixels" \, ofelia.Pixelate_XPixels)
\; shader1:setUniform1f("Pixelate_YPixels" \, ofelia.Pixelate_YPixels)
\; shader1:setUniform1f("PositionShift_RateX" \, ofelia.PositionShift_RateX
/ 100) \; shader1:setUniform1f("PositionShift_RateY" \, ofelia.PositionShift_RateY
/ 100) \; shader1:setUniform1f("RGBShift_Angle" \, ofelia.RGBShift_Angle
/ 100) \; shader1:setUniform1f("RGBShift_Amount" \, ofelia.RGBShift_Amount
/ 100) \; shader1:setUniform1f("VertlTiltShift_V" \, ofelia.VertlTiltShift_V
/ 100) \; shader1:setUniform1f("VertlTiltShift_R" \, ofelia.VertlTiltShift_R
/ 100) \; fbo2:beginFbo() \; ofClear(255 \, 255 \, 255 \, 0) \; ofDrawRectangle(0
\, 0 \, 800 \, 600) \; fbo2:endFbo() \; shader1:endShader() \; fbo2:draw(20
\, 20 \, 800 \, 600) \; outputList[1] = videoPlayer:getPosition() \;
outputList[2] = videoPlayer:getDuration() \; return outputList \; end
\; \; function ofelia.exit() \; videoPlayer:close() \; shader1:unload()
\; end \;;
#X obj 165 93 metro 2000;
#X obj 165 71 r \$0-randomStep;
#X msg 314 229 start \$1;
#X obj 326 614 s \$0-frameNumber;
#X floatatom 287 544 10 0 0 0 - - -;
#X obj 287 521 i;
#X obj 287 452 *;
#X obj 287 498 * 25;
#X obj 287 427 unpack;
#X obj 287 568 change;
#X obj 248 499 f;
#X obj 248 523 + 1;
#X obj 36 131 spigot;
#X obj 18 24 r \$0-setPosition;
#X obj 471 345 sel 120 121;
#X obj 248 568 sel 0;
#X obj 248 545 mod 2;
#X msg 36 495 setPosition \$1;
#X obj 36 322 * 25;
#X obj 36 345 i;
#X obj 36 368 / 25;
#X floatatom 36 300 10 0 0 0 - - -;
#X obj 36 277 *;
#X obj 36 414 /;
#X obj 320 450 s \$0-videoDuration;
#X obj 51 254 r \$0-videoDuration;
#X obj 51 391 r \$0-videoDuration;
#X obj 36 437 change;
#X obj 181 216 /;
#X obj 62 184 +;
#X obj 196 193 r \$0-videoDuration;
#X obj 18 51 * 1e+06;
#X obj 103 184 mod 1e+06;
#X obj 36 208 / 1e+06;
#X obj 36 185 f;
#X obj 181 170 * 1e+06;
#X obj 320 498 s \$0-videoCurrentTime;
#X obj 287 475 t f f;
#X obj 287 591 moses 0;
#X obj 510 216 r \$0-loadVideo;
#X msg 510 280 loadVideo;
#X obj 260 381 t b l;
#N canvas 402 120 1226 917 gui 0;
#X obj 184 245 s \$0-stop;
#X obj 262 361 s \$0-setVolume;
#X obj 250 573 s \$0-setPosition;
#X obj 252 783 s \$0-manualTempoSlider;
#X obj 196 669 s \$0-manualTempo;
#X obj 268 430 loadbang;
#X obj 280 476 s \$0-setTempo;
#X obj 250 314 loadbang;
#X obj 262 715 loadbang;
#X obj 43 222 ofelia_label 30 650 100 20;
#X obj 43 153 ofelia_toggle 135 650 20;
#X obj 196 176 loadbang;
#X msg 196 199 symbol Start;
#X obj 196 268 loadbang;
#X msg 196 291 symbol Stop;
#X obj 43 314 ofelia_label 30 675 100 20;
#X obj 43 245 ofelia_bang 135 675 20;
#X obj 196 384 loadbang;
#X obj 43 361 ofelia_hSlider 135 700 100 20 0 100;
#X obj 43 430 ofelia_label 30 700 100 20;
#X obj 196 504 loadbang;
#X msg 196 407 symbol Volume;
#X obj 43 550 ofelia_label 30 725 100 20;
#X msg 196 527 symbol Tempo;
#X obj 196 600 loadbang;
#X obj 43 573 ofelia_hSlider 135 750 100 20 0 1;
#X obj 43 646 ofelia_label 30 750 100 20;
#X msg 196 623 symbol Position;
#X obj 43 16 inlet;
#X obj 196 692 loadbang;
#X msg 196 715 symbol MTempo;
#X obj 196 784 loadbang;
#X msg 196 807 symbol MTempo;
#X obj 796 869 outlet;
#X obj 43 669 ofelia_toggle 135 775 20;
#X obj 43 830 ofelia_label 30 800 100 20;
#X obj 43 738 ofelia_label 30 775 100 20;
#X obj 796 340 ofelia_bang 500 650 20;
#X obj 796 386 ofelia_label 525 650 150 20;
#X obj 796 409 ofelia_bang 680 650 20;
#X obj 939 409 s \$0-shaderPlus;
#X obj 939 340 s \$0-shaderMinuus;
#N canvas 67 205 483 444 gui_positionShift 0;
#X obj 212 143 loadbang;
#X obj 212 325 loadbang;
#X obj 53 29 inlet;
#X obj 53 394 outlet;
#X obj 53 73 spigot;
#X obj 53 256 spigot;
#X obj 86 29 r \$0-subViewNum;
#X obj 86 212 r \$0-subViewNum;
#X obj 53 189 ofelia_label 525 700 100 20;
#X obj 53 371 ofelia_label 525 725 100 20;
#X obj 53 96 ofelia_number 630 700 60 20 -1000 1000;
#X obj 53 279 ofelia_number 630 725 60 20 -1000 1000;
#X msg 212 166 symbol RateX;
#X msg 212 348 symbol RateY;
#X obj 86 52 == 15;
#X obj 86 235 == 15;
#X obj 278 50 loadbang;
#X msg 278 73 140;
#X obj 278 233 loadbang;
#X msg 278 256 40;
#X msg 278 119 PositionShift_RateX \$1;
#X obj 278 143 s \$0-videoPlayer;
#X obj 278 326 s \$0-videoPlayer;
#X msg 278 302 PositionShift_RateY \$1;
#X connect 0 0 12 0;
#X connect 1 0 13 0;
#X connect 2 0 4 0;
#X connect 4 0 10 0;
#X connect 5 0 11 0;
#X connect 6 0 14 0;
#X connect 7 0 15 0;
#X connect 8 0 5 0;
#X connect 9 0 3 0;
#X connect 10 0 8 0;
#X connect 10 1 20 0;
#X connect 11 0 9 0;
#X connect 11 1 23 0;
#X connect 12 0 8 1;
#X connect 13 0 9 1;
#X connect 14 0 4 1;
#X connect 14 0 10 0;
#X connect 15 0 5 1;
#X connect 15 0 11 0;
#X connect 16 0 17 0;
#X connect 17 0 10 1;
#X connect 18 0 19 0;
#X connect 19 0 11 1;
#X connect 20 0 21 0;
#X connect 23 0 22 0;
#X restore 1004 524 pd gui_positionShift;
#N canvas 67 237 499 508 gui_Pixelate 0;
#X obj 268 164 loadbang;
#X obj 268 369 loadbang;
#X obj 109 28 inlet;
#X obj 109 438 outlet;
#X obj 109 72 spigot;
#X obj 109 277 spigot;
#X obj 142 28 r \$0-subViewNum;
#X obj 142 233 r \$0-subViewNum;
#X obj 109 210 ofelia_label 525 700 100 20;
#X obj 109 415 ofelia_label 525 725 100 20;
#X obj 142 51 == 14;
#X obj 142 256 == 14;
#X msg 268 187 symbol YPixels;
#X msg 268 392 symbol XPixels;
#X obj 109 95 ofelia_number 630 700 60 20 1 200;
#X obj 109 300 ofelia_number 630 725 60 20 1 200;
#X obj 304 49 loadbang;
#X msg 304 72 100;
#X obj 304 254 loadbang;
#X msg 304 277 100;
#X msg 304 323 Pixelate_YPixels \$1;
#X obj 304 346 s \$0-videoPlayer;
#X obj 304 141 s \$0-videoPlayer;
#X msg 304 118 Pixelate_XPixels \$1;
#X connect 0 0 12 0;
#X connect 1 0 13 0;
#X connect 2 0 4 0;
#X connect 4 0 14 0;
#X connect 5 0 15 0;
#X connect 6 0 10 0;
#X connect 7 0 11 0;
#X connect 8 0 5 0;
#X connect 9 0 3 0;
#X connect 10 0 4 1;
#X connect 10 0 14 0;
#X connect 11 0 5 1;
#X connect 11 0 15 0;
#X connect 12 0 8 1;
#X connect 13 0 9 1;
#X connect 14 0 8 0;
#X connect 14 1 23 0;
#X connect 15 0 9 0;
#X connect 15 1 20 0;
#X connect 16 0 17 0;
#X connect 17 0 14 1;
#X connect 18 0 19 0;
#X connect 19 0 15 1;
#X connect 20 0 21 0;
#X connect 23 0 22 0;
#X restore 991 547 pd gui_Pixelate;
#N canvas 67 221 566 444 gui_rgbShift 0;
#X obj 268 141 loadbang;
#X obj 268 323 loadbang;
#X obj 109 28 inlet;
#X obj 109 392 outlet;
#X obj 109 72 spigot;
#X obj 109 254 spigot;
#X obj 142 28 r \$0-subViewNum;
#X obj 142 210 r \$0-subViewNum;
#X obj 109 187 ofelia_label 525 700 100 20;
#X obj 109 369 ofelia_label 525 725 100 20;
#X obj 109 95 ofelia_number 630 700 60 20 -1000 1000;
#X obj 109 277 ofelia_number 630 725 60 20 -1000 1000;
#X msg 268 164 symbol Angle;
#X msg 268 346 symbol Amount;
#X obj 142 51 == 16;
#X obj 142 233 == 16;
#X obj 334 49 loadbang;
#X msg 334 72 -180;
#X obj 334 231 loadbang;
#X msg 334 254 30;
#X msg 334 118 RGBShift_Angle \$1;
#X msg 334 300 RGBShift_Amount \$1;
#X obj 334 141 s \$0-videoPlayer;
#X obj 334 323 s \$0-videoPlayer;
#X connect 0 0 12 0;
#X connect 1 0 13 0;
#X connect 2 0 4 0;
#X connect 4 0 10 0;
#X connect 5 0 11 0;
#X connect 6 0 14 0;
#X connect 7 0 15 0;
#X connect 8 0 5 0;
#X connect 9 0 3 0;
#X connect 10 0 8 0;
#X connect 10 1 20 0;
#X connect 11 0 9 0;
#X connect 11 1 21 0;
#X connect 12 0 8 1;
#X connect 13 0 9 1;
#X connect 14 0 4 1;
#X connect 14 0 10 0;
#X connect 15 0 5 1;
#X connect 15 0 11 0;
#X connect 16 0 17 0;
#X connect 17 0 10 1;
#X connect 18 0 19 0;
#X connect 19 0 11 1;
#X connect 20 0 22 0;
#X connect 21 0 23 0;
#X restore 1017 501 pd gui_rgbShift;
#N canvas 67 229 566 432 gui_vTiltShift 0;
#X obj 268 118 loadbang;
#X obj 268 277 loadbang;
#X obj 109 28 inlet;
#X obj 109 346 outlet;
#X obj 109 72 spigot;
#X obj 109 231 spigot;
#X obj 142 28 r \$0-subViewNum;
#X obj 142 187 r \$0-subViewNum;
#X obj 109 164 ofelia_label 525 700 100 20;
#X obj 109 323 ofelia_label 525 725 100 20;
#X obj 109 95 ofelia_number 630 700 60 20 -1000 1000;
#X obj 109 254 ofelia_number 630 725 60 20 -1000 1000;
#X msg 268 141 symbol V;
#X msg 268 300 symbol R;
#X obj 142 51 == 17;
#X obj 142 210 == 17;
#X obj 334 49 loadbang;
#X msg 334 72 6;
#X obj 334 208 loadbang;
#X msg 334 231 120;
#X msg 334 118 VertlTiltShift_V \$1;
#X obj 334 141 s \$0-videoPlayer;
#X obj 334 300 s \$0-videoPlayer;
#X msg 334 277 VertlTiltShift_R \$1;
#X connect 0 0 12 0;
#X connect 1 0 13 0;
#X connect 2 0 4 0;
#X connect 4 0 10 0;
#X connect 5 0 11 0;
#X connect 6 0 14 0;
#X connect 7 0 15 0;
#X connect 8 0 5 0;
#X connect 9 0 3 0;
#X connect 10 0 8 0;
#X connect 10 1 20 0;
#X connect 11 0 9 0;
#X connect 11 1 23 0;
#X connect 12 0 8 1;
#X connect 13 0 9 1;
#X connect 14 0 4 1;
#X connect 14 0 10 0;
#X connect 15 0 5 1;
#X connect 15 0 11 0;
#X connect 16 0 17 0;
#X connect 17 0 10 1;
#X connect 18 0 19 0;
#X connect 19 0 11 1;
#X connect 20 0 21 0;
#X connect 23 0 22 0;
#X restore 1030 478 pd gui_vTiltShift;
#N canvas 1278 238 432 375 gui_bleach 0;
#X obj 237 202 loadbang;
#X msg 237 225 symbol Opacity;
#X obj 78 89 inlet;
#X obj 78 271 outlet;
#X obj 78 110 spigot;
#X obj 111 66 r \$0-subViewNum;
#X obj 111 89 == 0;
#X obj 78 133 ofelia_number 630 700 60 20 1 100;
#X obj 78 248 ofelia_label 525 700 100 20;
#X obj 273 87 loadbang;
#X msg 273 110 23;
#X obj 273 179 s \$0-videoPlayer;
#X msg 273 156 Bleach_Opacity \$1;
#X connect 0 0 1 0;
#X connect 1 0 8 1;
#X connect 2 0 4 0;
#X connect 4 0 7 0;
#X connect 5 0 6 0;
#X connect 6 0 4 1;
#X connect 6 0 7 0;
#X connect 7 0 8 0;
#X connect 7 1 12 0;
#X connect 8 0 3 0;
#X connect 9 0 10 0;
#X connect 10 0 7 1;
#X connect 12 0 11 0;
#X restore 823 846 pd gui_bleach;
#N canvas 649 251 499 495 gui_bokeh 0;
#X obj 268 164 loadbang;
#X msg 268 187 symbol Bias;
#X obj 268 369 loadbang;
#X obj 109 28 inlet;
#X obj 109 438 outlet;
#X obj 109 72 spigot;
#X obj 142 51 == 1;
#X obj 109 277 spigot;
#X obj 142 256 == 1;
#X obj 142 28 r \$0-subViewNum;
#X obj 142 233 r \$0-subViewNum;
#X obj 109 95 ofelia_number 630 700 60 20 0 200;
#X obj 109 210 ofelia_label 525 700 100 20;
#X obj 109 300 ofelia_number 630 725 60 20 0 200;
#X obj 109 415 ofelia_label 525 725 100 20;
#X msg 268 392 symbol Focus;
#X obj 304 49 loadbang;
#X msg 304 72 181;
#X obj 304 254 loadbang;
#X msg 304 277 125;
#X msg 304 118 Bokeh_Bias \$1;
#X obj 304 141 s \$0-videoPlayer;
#X obj 304 346 s \$0-videoPlayer;
#X msg 304 323 Bokeh_Focus \$1;
#X connect 0 0 1 0;
#X connect 1 0 12 1;
#X connect 2 0 15 0;
#X connect 3 0 5 0;
#X connect 5 0 11 0;
#X connect 6 0 5 1;
#X connect 6 0 11 0;
#X connect 7 0 13 0;
#X connect 8 0 7 1;
#X connect 8 0 13 0;
#X connect 9 0 6 0;
#X connect 10 0 8 0;
#X connect 11 0 12 0;
#X connect 11 1 20 0;
#X connect 12 0 7 0;
#X connect 13 0 14 0;
#X connect 13 1 23 0;
#X connect 14 0 4 0;
#X connect 15 0 14 1;
#X connect 16 0 17 0;
#X connect 17 0 11 1;
#X connect 18 0 19 0;
#X connect 19 0 13 1;
#X connect 20 0 21 0;
#X connect 23 0 22 0;
#X restore 835 823 pd gui_bokeh;
#N canvas 1308 325 499 523 gui_circleWarp 0;
#X obj 268 164 loadbang;
#X obj 268 369 loadbang;
#X obj 109 28 inlet;
#X obj 109 438 outlet;
#X obj 109 72 spigot;
#X obj 109 277 spigot;
#X obj 142 28 r \$0-subViewNum;
#X obj 142 233 r \$0-subViewNum;
#X obj 109 95 ofelia_number 630 700 60 20 0 200;
#X obj 109 210 ofelia_label 525 700 100 20;
#X obj 109 415 ofelia_label 525 725 100 20;
#X msg 268 392 symbol Radius;
#X msg 268 187 symbol Rotation;
#X obj 109 300 ofelia_number 630 725 60 20 1 90;
#X obj 142 51 == 2;
#X obj 142 256 == 2;
#X obj 304 49 loadbang;
#X msg 304 72 200;
#X obj 298 254 loadbang;
#X msg 298 277 90;
#X msg 304 118 CircleWarp_Rotation \$1;
#X obj 304 141 s \$0-videoPlayer;
#X obj 298 346 s \$0-videoPlayer;
#X msg 298 323 CircleWarp_Radius \$1;
#X connect 0 0 12 0;
#X connect 1 0 11 0;
#X connect 2 0 4 0;
#X connect 4 0 8 0;
#X connect 5 0 13 0;
#X connect 6 0 14 0;
#X connect 7 0 15 0;
#X connect 8 0 9 0;
#X connect 8 1 20 0;
#X connect 9 0 5 0;
#X connect 10 0 3 0;
#X connect 11 0 10 1;
#X connect 12 0 9 1;
#X connect 13 0 10 0;
#X connect 13 1 23 0;
#X connect 14 0 4 1;
#X connect 14 0 8 0;
#X connect 15 0 5 1;
#X connect 15 0 13 0;
#X connect 16 0 17 0;
#X connect 17 0 8 1;
#X connect 18 0 19 0;
#X connect 19 0 13 1;
#X connect 20 0 21 0;
#X connect 23 0 22 0;
#X restore 848 800 pd gui_circleWarp;
#N canvas 280 239 499 701 gui_contrast 0;
#X obj 268 164 loadbang;
#X obj 268 369 loadbang;
#X obj 109 28 inlet;
#X obj 109 72 spigot;
#X obj 109 277 spigot;
#X obj 142 28 r \$0-subViewNum;
#X obj 142 233 r \$0-subViewNum;
#X obj 109 95 ofelia_number 630 700 60 20 0 200;
#X obj 109 210 ofelia_label 525 700 100 20;
#X obj 109 415 ofelia_label 525 725 100 20;
#X obj 109 300 ofelia_number 630 725 60 20 1 90;
#X msg 268 392 symbol Brightness;
#X msg 268 187 symbol Contrast;
#X obj 268 574 loadbang;
#X obj 109 643 outlet;
#X obj 109 482 spigot;
#X obj 142 438 r \$0-subViewNum;
#X msg 268 597 symbol Multiple;
#X obj 142 461 == 3;
#X obj 142 256 == 3;
#X obj 142 51 == 3;
#X obj 109 505 ofelia_number 630 750 60 20 1 90;
#X obj 109 620 ofelia_label 525 750 100 20;
#X obj 304 49 loadbang;
#X msg 304 72 181;
#X obj 298 254 loadbang;
#X msg 298 277 154;
#X obj 298 459 loadbang;
#X msg 298 482 62;
#X msg 304 118 Contrast_Contrast \$1;
#X obj 304 141 s \$0-videoPlayer;
#X obj 298 346 s \$0-videoPlayer;
#X obj 298 551 s \$0-videoPlayer;
#X msg 298 528 Contrast_Multiple \$1;
#X msg 298 323 Contrast_Brightness \$1;
#X connect 0 0 12 0;
#X connect 1 0 11 0;
#X connect 2 0 3 0;
#X connect 3 0 7 0;
#X connect 4 0 10 0;
#X connect 5 0 20 0;
#X connect 6 0 19 0;
#X connect 7 0 8 0;
#X connect 7 1 29 0;
#X connect 8 0 4 0;
#X connect 9 0 15 0;
#X connect 10 0 9 0;
#X connect 10 1 34 0;
#X connect 11 0 9 1;
#X connect 12 0 8 1;
#X connect 13 0 17 0;
#X connect 15 0 21 0;
#X connect 16 0 18 0;
#X connect 17 0 22 1;
#X connect 18 0 15 1;
#X connect 18 0 21 0;
#X connect 19 0 4 1;
#X connect 19 0 10 0;
#X connect 20 0 3 1;
#X connect 20 0 7 0;
#X connect 21 0 22 0;
#X connect 21 1 33 0;
#X connect 22 0 14 0;
#X connect 23 0 24 0;
#X connect 24 0 7 1;
#X connect 25 0 26 0;
#X connect 26 0 10 1;
#X connect 27 0 28 0;
#X connect 28 0 21 1;
#X connect 29 0 30 0;
#X connect 33 0 32 0;
#X connect 34 0 31 0;
#X restore 861 777 pd gui_contrast;
#N canvas 390 418 482 332 gui_blur 0;
#X obj 237 202 loadbang;
#X obj 78 89 inlet;
#X obj 78 271 outlet;
#X obj 78 110 spigot;
#X obj 111 66 r \$0-subViewNum;
#X obj 78 248 ofelia_label 525 700 100 20;
#X obj 111 89 == 4;
#X obj 78 133 ofelia_number 630 700 60 20 0 200;
#X msg 237 225 symbol Radius;
#X obj 273 87 loadbang;
#X msg 273 110 25;
#X msg 273 156 GaussianBlur_Radius \$1;
#X obj 273 179 s \$0-videoPlayer;
#X connect 0 0 8 0;
#X connect 1 0 3 0;
#X connect 3 0 7 0;
#X connect 4 0 6 0;
#X connect 5 0 2 0;
#X connect 6 0 3 1;
#X connect 6 0 7 0;
#X connect 7 0 5 0;
#X connect 7 1 11 0;
#X connect 8 0 5 1;
#X connect 9 0 10 0;
#X connect 10 0 7 1;
#X connect 11 0 12 0;
#X restore 874 754 pd gui_blur;
#N canvas 557 387 486 383 gui_grain 0;
#X obj 237 203 loadbang;
#X obj 78 89 inlet;
#X obj 78 272 outlet;
#X obj 78 110 spigot;
#X obj 111 66 r \$0-subViewNum;
#X obj 78 249 ofelia_label 525 700 100 20;
#X obj 78 133 ofelia_number 630 700 60 20 0 200;
#X msg 237 226 symbol Intensity;
#X obj 111 89 == 5;
#X obj 273 87 loadbang;
#X msg 273 110 29;
#X msg 273 156 Grain_Intensity \$1;
#X obj 273 179 s \$0-videoPlayer;
#X connect 0 0 7 0;
#X connect 1 0 3 0;
#X connect 3 0 6 0;
#X connect 4 0 8 0;
#X connect 5 0 2 0;
#X connect 6 0 5 0;
#X connect 6 1 11 0;
#X connect 7 0 5 1;
#X connect 8 0 3 1;
#X connect 8 0 6 0;
#X connect 9 0 10 0;
#X connect 10 0 6 1;
#X connect 11 0 12 0;
#X restore 887 731 pd gui_grain;
#N canvas 469 254 486 364 gui_greyScale 0;
#X obj 237 202 loadbang;
#X obj 78 89 inlet;
#X obj 78 271 outlet;
#X obj 78 110 spigot;
#X obj 111 66 r \$0-subViewNum;
#X obj 78 248 ofelia_label 525 700 100 20;
#X obj 78 133 ofelia_number 630 700 60 20 0 200;
#X msg 237 225 symbol Factor;
#X obj 111 89 == 6;
#X obj 273 87 loadbang;
#X msg 273 110 0;
#X msg 273 156 GreyScale_Factor \$1;
#X obj 273 179 s \$0-videoPlayer;
#X connect 0 0 7 0;
#X connect 1 0 3 0;
#X connect 3 0 6 0;
#X connect 4 0 8 0;
#X connect 5 0 2 0;
#X connect 6 0 5 0;
#X connect 6 1 11 0;
#X connect 7 0 5 1;
#X connect 8 0 3 1;
#X connect 8 0 6 0;
#X connect 9 0 10 0;
#X connect 10 0 6 1;
#X connect 11 0 12 0;
#X restore 900 708 pd gui_greyScale;
#N canvas 381 193 499 703 gui_hsbShift 0;
#X obj 268 164 loadbang;
#X obj 268 369 loadbang;
#X obj 109 28 inlet;
#X obj 109 72 spigot;
#X obj 109 277 spigot;
#X obj 142 28 r \$0-subViewNum;
#X obj 142 233 r \$0-subViewNum;
#X obj 109 210 ofelia_label 525 700 100 20;
#X obj 109 415 ofelia_label 525 725 100 20;
#X obj 268 574 loadbang;
#X obj 109 643 outlet;
#X obj 109 482 spigot;
#X obj 142 438 r \$0-subViewNum;
#X obj 109 620 ofelia_label 525 750 100 20;
#X obj 142 51 == 7;
#X obj 142 256 == 7;
#X obj 142 461 == 7;
#X obj 109 95 ofelia_number 630 700 60 20 0 100;
#X obj 109 300 ofelia_number 630 725 60 20 0 100;
#X obj 109 505 ofelia_number 630 750 60 20 0 100;
#X msg 268 187 symbol Hue;
#X msg 268 392 symbol Saturation;
#X msg 268 597 symbol Brightness;
#X obj 304 49 loadbang;
#X msg 304 72 56;
#X obj 304 254 loadbang;
#X obj 304 459 loadbang;
#X msg 304 277 87;
#X msg 304 482 40;
#X msg 304 118 HSBShift_Hue \$1;
#X obj 304 141 s \$0-videoPlayer;
#X obj 304 346 s \$0-videoPlayer;
#X msg 304 323 HSBShift_Saturation \$1;
#X obj 304 551 s \$0-videoPlayer;
#X msg 304 528 HSBShift_Brightness \$1;
#X connect 0 0 20 0;
#X connect 1 0 21 0;
#X connect 2 0 3 0;
#X connect 3 0 17 0;
#X connect 4 0 18 0;
#X connect 5 0 14 0;
#X connect 6 0 15 0;
#X connect 7 0 4 0;
#X connect 8 0 11 0;
#X connect 9 0 22 0;
#X connect 11 0 19 0;
#X connect 12 0 16 0;
#X connect 13 0 10 0;
#X connect 14 0 3 1;
#X connect 14 0 17 0;
#X connect 15 0 4 1;
#X connect 15 0 18 0;
#X connect 16 0 11 1;
#X connect 16 0 19 0;
#X connect 17 0 7 0;
#X connect 17 1 29 0;
#X connect 18 0 8 0;
#X connect 18 1 32 0;
#X connect 19 0 13 0;
#X connect 19 1 34 0;
#X connect 20 0 7 1;
#X connect 21 0 8 1;
#X connect 22 0 13 1;
#X connect 23 0 24 0;
#X connect 24 0 17 1;
#X connect 25 0 27 0;
#X connect 26 0 28 0;
#X connect 27 0 18 1;
#X connect 28 0 19 1;
#X connect 29 0 30 0;
#X connect 32 0 31 0;
#X connect 34 0 33 0;
#X restore 913 685 pd gui_hsbShift;
#N canvas 273 270 486 319 gui_kaleidoscope 0;
#X obj 237 202 loadbang;
#X obj 78 89 inlet;
#X obj 78 271 outlet;
#X obj 78 110 spigot;
#X obj 111 66 r \$0-subViewNum;
#X obj 78 248 ofelia_label 525 700 100 20;
#X obj 78 133 ofelia_number 630 700 60 20 0 200;
#X obj 111 89 == 9;
#X msg 237 225 symbol Segments;
#X obj 273 87 loadbang;
#X msg 273 110 5;
#X msg 273 156 Kaleidoscope_Segments \$1;
#X obj 273 179 s \$0-videoPlayer;
#X connect 0 0 8 0;
#X connect 1 0 3 0;
#X connect 3 0 6 0;
#X connect 4 0 7 0;
#X connect 5 0 2 0;
#X connect 6 0 5 0;
#X connect 6 1 11 0;
#X connect 7 0 3 1;
#X connect 7 0 6 0;
#X connect 8 0 5 1;
#X connect 9 0 10 0;
#X connect 10 0 6 1;
#X connect 11 0 12 0;
#X restore 926 662 pd gui_kaleidoscope;
#N canvas 371 108 557 845 gui_kaleidoscope2 0;
#X obj 268 171 loadbang;
#X obj 268 353 loadbang;
#X obj 109 35 inlet;
#X obj 109 79 spigot;
#X obj 109 284 spigot;
#X obj 142 35 r \$0-subViewNum;
#X obj 142 240 r \$0-subViewNum;
#X obj 109 217 ofelia_label 525 700 100 20;
#X obj 109 399 ofelia_label 525 725 100 20;
#X obj 268 535 loadbang;
#X obj 109 466 spigot;
#X obj 142 422 r \$0-subViewNum;
#X obj 109 581 ofelia_label 525 750 100 20;
#X msg 268 194 symbol Sides;
#X obj 109 102 ofelia_number 630 700 60 20 1 500;
#X msg 268 376 symbol Angle;
#X obj 109 307 ofelia_number 630 725 60 20 -1000 1000;
#X obj 109 489 ofelia_number 630 750 60 20 -1000 1000;
#X obj 268 717 loadbang;
#X obj 109 786 outlet;
#X obj 109 648 spigot;
#X obj 142 604 r \$0-subViewNum;
#X obj 142 58 == 10;
#X obj 142 263 == 10;
#X obj 142 445 == 10;
#X obj 142 627 == 10;
#X obj 304 56 loadbang;
#X msg 304 79 32;
#X obj 334 261 loadbang;
#X msg 334 284 100;
#X obj 334 443 loadbang;
#X msg 334 466 25;
#X obj 334 625 loadbang;
#X msg 334 648 40;
#X msg 304 125 Kaleidoscope2_Sides \$1;
#X obj 304 148 s \$0-videoPlayer;
#X obj 334 353 s \$0-videoPlayer;
#X msg 334 330 Kaleidoscope2_Angle \$1;
#X obj 334 535 s \$0-videoPlayer;
#X msg 334 512 Kaleidoscope2_SlideX \$1;
#X obj 334 717 s \$0-videoPlayer;
#X msg 334 694 Kaleidoscope2_SlideY \$1;
#X msg 268 558 symbol SlideX;
#X msg 268 740 symbol SlideY;
#X obj 109 671 ofelia_number 630 775 60 20 -1000 1000;
#X obj 109 763 ofelia_label 525 775 100 20;
#X connect 0 0 13 0;
#X connect 1 0 15 0;
#X connect 2 0 3 0;
#X connect 3 0 14 0;
#X connect 4 0 16 0;
#X connect 5 0 22 0;
#X connect 6 0 23 0;
#X connect 7 0 4 0;
#X connect 8 0 10 0;
#X connect 9 0 42 0;
#X connect 10 0 17 0;
#X connect 11 0 24 0;
#X connect 12 0 20 0;
#X connect 13 0 7 1;
#X connect 14 0 7 0;
#X connect 14 1 34 0;
#X connect 15 0 8 1;
#X connect 16 0 8 0;
#X connect 16 1 37 0;
#X connect 17 0 12 0;
#X connect 17 1 39 0;
#X connect 18 0 43 0;
#X connect 20 0 44 0;
#X connect 21 0 25 0;
#X connect 22 0 3 1;
#X connect 22 0 14 0;
#X connect 23 0 4 1;
#X connect 23 0 16 0;
#X connect 24 0 10 1;
#X connect 24 0 17 0;
#X connect 25 0 20 1;
#X connect 25 0 44 0;
#X connect 26 0 27 0;
#X connect 27 0 14 1;
#X connect 28 0 29 0;
#X connect 29 0 16 1;
#X connect 30 0 31 0;
#X connect 31 0 17 1;
#X connect 32 0 33 0;
#X connect 33 0 44 1;
#X connect 34 0 35 0;
#X connect 37 0 36 0;
#X connect 39 0 38 0;
#X connect 41 0 40 0;
#X connect 42 0 12 1;
#X connect 43 0 45 1;
#X connect 44 0 45 0;
#X connect 44 1 41 0;
#X connect 45 0 19 0;
#X restore 939 639 pd gui_kaleidoscope2;
#N canvas 232 277 499 498 gui_metaImage 0;
#X obj 247 170 loadbang;
#X obj 247 375 loadbang;
#X obj 88 34 inlet;
#X obj 88 444 outlet;
#X obj 88 78 spigot;
#X obj 88 283 spigot;
#X obj 121 34 r \$0-subViewNum;
#X obj 121 239 r \$0-subViewNum;
#X obj 88 216 ofelia_label 525 700 100 20;
#X obj 88 421 ofelia_label 525 725 100 20;
#X obj 88 101 ofelia_number 630 700 60 20 1 200;
#X msg 247 398 symbol ColorFade;
#X obj 121 57 == 11;
#X obj 121 262 == 11;
#X obj 283 55 loadbang;
#X msg 283 78 4;
#X obj 283 260 loadbang;
#X obj 88 306 ofelia_number 630 725 60 20 0 200;
#X msg 283 283 200;
#X msg 283 124 MetaImage_MosaicNumber \$1;
#X obj 283 147 s \$0-videoPlayer;
#X obj 283 352 s \$0-videoPlayer;
#X msg 283 329 MetaImage_ColorFade \$1;
#X msg 247 193 symbol Number;
#X connect 0 0 23 0;
#X connect 1 0 11 0;
#X connect 2 0 4 0;
#X connect 4 0 10 0;
#X connect 5 0 17 0;
#X connect 6 0 12 0;
#X connect 7 0 13 0;
#X connect 8 0 5 0;
#X connect 9 0 3 0;
#X connect 10 0 8 0;
#X connect 10 1 19 0;
#X connect 11 0 9 1;
#X connect 12 0 4 1;
#X connect 12 0 10 0;
#X connect 13 0 5 1;
#X connect 13 0 17 0;
#X connect 14 0 15 0;
#X connect 15 0 10 1;
#X connect 16 0 18 0;
#X connect 17 0 9 0;
#X connect 17 1 22 0;
#X connect 18 0 17 1;
#X connect 19 0 20 0;
#X connect 22 0 21 0;
#X connect 23 0 8 1;
#X restore 952 616 pd gui_metaImage;
#N canvas 67 388 486 352 gui_mosaicColor 0;
#X obj 237 203 loadbang;
#X obj 78 89 inlet;
#X obj 78 272 outlet;
#X obj 78 110 spigot;
#X obj 111 66 r \$0-subViewNum;
#X obj 78 249 ofelia_label 525 700 100 20;
#X obj 78 133 ofelia_number 630 700 60 20 1 200;
#X obj 111 89 == 12;
#X obj 273 87 loadbang;
#X msg 273 110 10;
#X msg 273 156 MosaicColor_MosaicNumber \$1;
#X obj 273 179 s \$0-videoPlayer;
#X msg 237 226 symbol Number;
#X connect 0 0 12 0;
#X connect 1 0 3 0;
#X connect 3 0 6 0;
#X connect 4 0 7 0;
#X connect 5 0 2 0;
#X connect 6 0 5 0;
#X connect 6 1 10 0;
#X connect 7 0 3 1;
#X connect 7 0 6 0;
#X connect 8 0 9 0;
#X connect 9 0 6 1;
#X connect 10 0 11 0;
#X connect 12 0 5 1;
#X restore 965 593 pd gui_mosaicColor;
#N canvas 418 123 437 712 gui_noiseWarp 0;
#X obj 208 168 loadbang;
#X obj 208 373 loadbang;
#X obj 49 32 inlet;
#X obj 49 76 spigot;
#X obj 49 281 spigot;
#X obj 82 32 r \$0-subViewNum;
#X obj 82 237 r \$0-subViewNum;
#X obj 49 214 ofelia_label 525 700 100 20;
#X obj 49 419 ofelia_label 525 725 100 20;
#X obj 208 578 loadbang;
#X obj 49 647 outlet;
#X obj 49 486 spigot;
#X obj 82 442 r \$0-subViewNum;
#X obj 49 624 ofelia_label 525 750 100 20;
#X obj 82 55 == 13;
#X obj 82 260 == 13;
#X obj 82 465 == 13;
#X obj 49 99 ofelia_number 630 700 60 20 0 100;
#X obj 49 304 ofelia_number 630 725 60 20 0 100;
#X obj 49 509 ofelia_number 630 750 60 20 0 100;
#X msg 208 191 symbol Frequency;
#X msg 208 396 symbol Amplitude;
#X msg 208 601 symbol Speed;
#X obj 244 53 loadbang;
#X msg 244 76 29;
#X obj 244 258 loadbang;
#X obj 244 463 loadbang;
#X msg 244 281 4;
#X msg 244 486 32;
#X msg 244 532 NoiseWarp_Speed \$1;
#X obj 244 555 s \$0-videoPlayer;
#X obj 244 350 s \$0-videoPlayer;
#X obj 244 145 s \$0-videoPlayer;
#X msg 244 122 NoiseWarp_Frequency \$1;
#X msg 244 327 NoiseWarp_Amplitude \$1;
#X connect 0 0 20 0;
#X connect 1 0 21 0;
#X connect 2 0 3 0;
#X connect 3 0 17 0;
#X connect 4 0 18 0;
#X connect 5 0 14 0;
#X connect 6 0 15 0;
#X connect 7 0 4 0;
#X connect 8 0 11 0;
#X connect 9 0 22 0;
#X connect 11 0 19 0;
#X connect 12 0 16 0;
#X connect 13 0 10 0;
#X connect 14 0 3 1;
#X connect 14 0 17 0;
#X connect 15 0 4 1;
#X connect 15 0 18 0;
#X connect 16 0 11 1;
#X connect 16 0 19 0;
#X connect 17 0 7 0;
#X connect 17 1 33 0;
#X connect 18 0 8 0;
#X connect 18 1 34 0;
#X connect 19 0 13 0;
#X connect 19 1 29 0;
#X connect 20 0 7 1;
#X connect 21 0 8 1;
#X connect 22 0 13 1;
#X connect 23 0 24 0;
#X connect 24 0 17 1;
#X connect 25 0 27 0;
#X connect 26 0 28 0;
#X connect 27 0 18 1;
#X connect 28 0 19 1;
#X connect 29 0 30 0;
#X connect 33 0 32 0;
#X connect 34 0 31 0;
#X restore 978 570 pd gui_noiseWarp;
#X obj 823 455 t b b b b b b b b b b b b b b b b b;
#X obj 796 432 t b b;
#X obj 955 363 r \$0-shaderName;
#X floatatom 296 520 5 0 0 0 - - -;
#X msg 268 453 100;
#X obj 43 475 ofelia_hSlider 135 725 100 20 10 200;
#X obj 955 271 loadbang;
#X obj 796 317 ofelia_label 305 800 100 20;
#X msg 955 294 symbol RandomSteps, f 19;
#X obj 796 247 ofelia_toggle 280 800 20;
#X obj 949 247 s \$0-randomStep;
#X obj 196 153 s \$0-start;
#X obj 956 193 makefilename Frame:%d;
#X obj 956 170 r \$0-frameNumber;
#X obj 43 39 ofelia f \; ofSetColor(20 \, 170 \, 150) \; ofDrawRectangle(20
\, 640 \, 800 \, 200) \; ofSetColor(20 \, 130 \, 150) \; ofDrawRectangle(25
\, 645 \, 390 \, 190) \; ofSetColor(20 \, 130 \, 150) \; ofDrawRectangle(425
\, 645 \, 390 \, 190) \; return nil \;;
#X msg 250 338 70;
#X obj 43 761 ofelia_hSlider 135 800 100 20 -1 1;
#X msg 262 738 0.1;
#X obj 956 102 r \$0-videoCurrentTime;
#X obj 797 148 ofelia_label 245 700 160 20;
#X obj 797 216 ofelia_label 245 725 160 20;
#X obj 797 79 ofelia_label 245 675 160 20;
#X obj 956 33 r \$0-videoDuration;
#N canvas 67 89 450 300 formatTime 0;
#X obj 52 61 inlet;
#X obj 52 224 outlet;
#X obj 52 84 ofelia f \; if a >= 0 then \; local hours = math.floor(math.fmod(a
\, 86400)/3600) \; local minutes = math.floor(math.fmod(a \, 3600)/60)
\; local seconds = math.floor(math.fmod(a \, 60)) \; local ms = math.floor(math.fmod(a*1000
\, 1000)) \; local string = string.format("Dur:%d:%02d:%02d:%02d" \,
hours \, minutes \, seconds \, ms) \; return string \; end \;;
#X connect 0 0 2 0;
#X connect 2 0 1 0;
#X restore 956 56 pd formatTime;
#N canvas 67 89 450 300 formatTime 0;
#X obj 52 84 ofelia f \; if a >= 0 then \; local hours = math.floor(math.fmod(a
\, 86400)/3600) \; local minutes = math.floor(math.fmod(a \, 3600)/60)
\; local seconds = math.floor(math.fmod(a \, 60)) \; local ms = math.floor(math.fmod(a*1000
\, 1000)) \; local string = string.format("Time:%d:%02d:%02d:%02d"
\, hours \, minutes \, seconds \, ms) \; return string \; end \;;
#X obj 52 61 inlet;
#X obj 52 224 outlet;
#X connect 0 0 2 0;
#X connect 1 0 0 0;
#X restore 956 125 pd formatTime;
#X obj 633 114 loadbang;
#X obj 567 183 loadbang;
#X msg 633 137 0.1;
#X obj 414 229 ofelia_label 305 775 100 20;
#X obj 414 160 ofelia_bang 280 775 20;
#X msg 567 206 symbol LoadVideo;
#X obj 606 375 s \$0-loadVideo;
#X connect 5 0 63 0;
#X connect 7 0 74 0;
#X connect 8 0 76 0;
#X connect 9 0 16 0;
#X connect 10 0 9 0;
#X connect 10 1 70 0;
#X connect 11 0 12 0;
#X connect 12 0 9 1;
#X connect 13 0 14 0;
#X connect 14 0 15 1;
#X connect 15 0 18 0;
#X connect 16 0 15 0;
#X connect 16 1 0 0;
#X connect 16 1 10 1;
#X connect 17 0 21 0;
#X connect 18 0 19 0;
#X connect 18 1 1 0;
#X connect 19 0 64 0;
#X connect 20 0 23 0;
#X connect 21 0 19 1;
#X connect 22 0 25 0;
#X connect 23 0 22 1;
#X connect 24 0 27 0;
#X connect 25 0 26 0;
#X connect 25 1 2 0;
#X connect 26 0 34 0;
#X connect 27 0 26 1;
#X connect 28 0 73 0;
#X connect 29 0 30 0;
#X connect 30 0 36 1;
#X connect 31 0 32 0;
#X connect 32 0 35 1;
#X connect 34 0 36 0;
#X connect 34 1 4 0;
#X connect 35 0 88 0;
#X connect 36 0 75 0;
#X connect 37 0 38 0;
#X connect 37 1 41 0;
#X connect 38 0 39 0;
#X connect 39 0 60 0;
#X connect 39 1 40 0;
#X connect 59 0 46 0;
#X connect 59 1 47 0;
#X connect 59 2 48 0;
#X connect 59 3 49 0;
#X connect 59 4 50 0;
#X connect 59 5 51 0;
#X connect 59 6 52 0;
#X connect 59 7 53 0;
#X connect 59 8 54 0;
#X connect 59 9 55 0;
#X connect 59 10 56 0;
#X connect 59 11 57 0;
#X connect 59 12 58 0;
#X connect 59 13 43 0;
#X connect 59 14 42 0;
#X connect 59 15 44 0;
#X connect 59 16 45 0;
#X connect 60 0 33 0;
#X connect 60 1 59 0;
#X connect 61 0 38 1;
#X connect 63 0 64 1;
#X connect 64 0 22 0;
#X connect 64 1 6 0;
#X connect 64 1 62 0;
#X connect 65 0 67 0;
#X connect 66 0 37 0;
#X connect 67 0 66 1;
#X connect 68 0 66 0;
#X connect 68 1 69 0;
#X connect 71 0 79 1;
#X connect 72 0 71 0;
#X connect 73 0 10 0;
#X connect 74 0 18 1;
#X connect 75 0 35 0;
#X connect 75 1 3 0;
#X connect 76 0 75 1;
#X connect 77 0 83 0;
#X connect 78 0 79 0;
#X connect 79 0 68 0;
#X connect 80 0 78 0;
#X connect 81 0 82 0;
#X connect 82 0 80 1;
#X connect 83 0 78 1;
#X connect 84 0 86 0;
#X connect 85 0 89 0;
#X connect 87 0 80 0;
#X connect 88 0 87 0;
#X connect 88 1 90 0;
#X connect 89 0 87 1;
#X restore 200 314 pd gui;
#X obj 200 291 ofDraw;
#X msg 260 275 stop;
#X obj 165 115 random 1e+06;
#X connect 0 0 29 0;
#X connect 1 0 39 1;
#X connect 2 0 26 0;
#X connect 3 0 44 0;
#X connect 4 0 62 0;
#X connect 5 0 71 0;
#X connect 6 0 2 0;
#X connect 7 0 8 0;
#X connect 8 0 26 0;
#X connect 9 0 26 0;
#X connect 10 0 26 0;
#X connect 11 0 19 0;
#X connect 12 0 11 0;
#X connect 12 0 14 1;
#X connect 12 0 15 1;
#X connect 12 0 24 0;
#X connect 14 0 17 0;
#X connect 15 0 16 0;
#X connect 16 0 21 0;
#X connect 17 0 20 0;
#X connect 18 0 41 0;
#X connect 19 0 10 0;
#X connect 19 0 25 0;
#X connect 20 0 12 0;
#X connect 21 0 12 0;
#X connect 22 0 14 0;
#X connect 23 0 15 0;
#X connect 26 0 68 0;
#X connect 27 0 72 0;
#X connect 28 0 27 0;
#X connect 29 0 26 0;
#X connect 31 0 36 0;
#X connect 32 0 31 0;
#X connect 33 0 64 0;
#X connect 34 0 32 0;
#X connect 35 0 33 0;
#X connect 35 1 51 0;
#X connect 35 1 33 1;
#X connect 36 0 65 0;
#X connect 37 0 38 0;
#X connect 38 0 43 0;
#X connect 39 0 61 0;
#X connect 40 0 58 0;
#X connect 41 0 15 0;
#X connect 41 1 14 0;
#X connect 42 0 39 0;
#X connect 43 0 37 1;
#X connect 43 0 42 0;
#X connect 44 0 26 0;
#X connect 45 0 46 0;
#X connect 46 0 47 0;
#X connect 47 0 50 0;
#X connect 48 0 45 0;
#X connect 49 0 48 0;
#X connect 50 0 54 0;
#X connect 52 0 49 1;
#X connect 53 0 50 1;
#X connect 54 0 3 0;
#X connect 55 0 56 1;
#X connect 56 0 59 0;
#X connect 57 0 55 1;
#X connect 58 0 61 0;
#X connect 59 0 61 1;
#X connect 60 0 49 0;
#X connect 61 0 56 0;
#X connect 61 0 60 0;
#X connect 62 0 55 0;
#X connect 64 0 34 0;
#X connect 64 1 63 0;
#X connect 65 1 30 0;
#X connect 66 0 67 0;
#X connect 67 0 26 0;
#X connect 68 0 37 0;
#X connect 68 1 35 0;
#X connect 69 0 26 0;
#X connect 70 0 69 0;
#X connect 71 0 26 0;
#X connect 72 0 61 0;
