#N canvas 933 125 675 686 10;
#X msg 283 130 stop;
#X obj 340 191 tgl 15 0 empty \$0-start start 17 7 0 10 -257985 -1
-1 0 1;
#X obj 36 153 f;
#X obj 69 98 tgl 15 0 empty \$0-manualTempo manualTempo 17 7 0 10 -257985
-1 -1 0 1;
#X msg 444 158 setVolume \$1;
#X obj 263 572 hsl 128 15 0 1 0 0 \$0-positionSlider empty position
-2 -8 0 10 -257985 -1 -1 0 1;
#X obj 39 252 hsl 128 15 0 1 0 0 empty \$0-setPosition setPosition
-2 -8 0 10 -257985 -1 -1 0 0;
#X obj 93 133 hsl 128 15 -1000 1000 0 0 empty \$0-manualTempoSlider
manualTempoSlider -2 -8 0 10 -257985 -1 -1 6985 1;
#X obj 63 153 + 100;
#X obj 283 110 bng 15 250 50 0 empty \$0-stop stop 17 7 0 10 -257985
-1 -1;
#X obj 444 139 nbx 5 14 -1e+37 1e+37 0 0 empty \$0-setVolume setVolume
0 -8 0 10 -257985 -1 -1 70 256;
#X obj 535 150 nbx 5 14 -1e+37 1e+37 0 0 empty \$0-setTempo setTempo
0 -8 0 10 -257985 -1 -1 100 256;
#X msg 535 169 setTempo \$1;
#X obj 294 511 nbx 5 14 -1e+37 1e+37 0 0 \$0-currentFrame empty currentFrame
0 -8 0 10 -257985 -1 -1 -1 256;
#X obj 260 543 nbx 5 14 -1e+37 1e+37 0 0 \$0-position empty position
0 -8 0 10 -257985 -1 -1 -1 256;
#X obj 329 475 nbx 5 14 -1e+37 1e+37 0 0 \$0-frameNumber empty frameNumber
0 -8 0 10 -257985 -1 -1 0 256;
#X obj 436 277 r \$0-video;
#X msg 471 549 glsl \$1;
#X obj 471 504 text get \$0-shaderList;
#X obj 471 485 nbx 5 14 0 24 0 1 empty \$0-effectNumber1 empty 0 -8
0 10 -228856 -1 -1 8 256;
#X obj 471 582 text define -k \$0-shaderList;
#A set Bleach \; Bokeh \; CircleWarp \; Contrast \; GaussianBlur \;
Grain \; GreyScale \; HSBShift \; Invert \; Kaleidoscope \; Kaleidoscope2
\; MetaImage \; MosaicColor \; NoiseWarp \; Pixelate \; PositionShift
\; RGBShift \; VertTiltShift \;;
#X obj 516 414 f;
#X obj 471 412 f;
#X obj 471 434 + 1;
#X obj 516 435 - 1;
#X obj 471 322 ofKeyPressed 50;
#X symbolatom 471 526 10 0 0 0 - - -;
#X obj 516 456 mod 18;
#X obj 471 456 mod 18;
#X obj 471 345 sel 120 121 32;
#X obj 260 438 unpack f f f;
#X obj 102 153 mod 100000;
#X obj 36 174 / 100000;
#X msg 36 272 framePosition 1 \$1;
#X obj 260 381 t l b b;
#X obj 36 131 spigot;
#X obj 516 391 r \$0-shaderMinuus;
#X obj 471 368 r \$0-shaderPlus;
#X obj 536 480 s \$0-subViewNum;
#X obj 545 526 s \$0-shaderName;
#X obj 260 358 ofelia define -k \$0-videoPlayer;
#A __set if type(window) ~= "userdata" then \; window = ofWindow()
\; end \; \; local canvas = ofCanvas(this) \; local clock = ofClock(this
\, "setup") \; local shaderDir = canvas:getDir() .. "/data/" \; local
videoPlayer = ofVideoPlayer() \; local shader1 = ofShader() \; local
fbo = ofFbo() \; local fbo2 = ofFbo() \; local outputList = {} \; ofelia.framePosition
= {0 \, 0} \; \; function ofelia.new() \; ofWindow.addListener("setup"
\, this) \; ofWindow.addListener("update" \, this) \; ofWindow.addListener("draw"
\, this) \; ofWindow.addListener("exit" \, this) \; window:setPosition(30
\, 100) \; window:setSize(840 \, 860) \; if ofWindow.exists then \;
clock:delay(0) \; else \; window:create() \; end \; end \; \; function
ofelia.free() \; window:destroy() \; ofWindow.removeListener("setup"
\, this) \; ofWindow.removeListener("update" \, this) \; ofWindow.removeListener("draw"
\, this) \; ofWindow.removeListener("exit" \, this) \; end \; \; function
ofelia.setup() \; ofSetWindowTitle("Video Player") \; ofBackground(0
\, 0 \, 0 \, 255) \; --videoPlayer:load(shaderDir .. "puckette_K1.mp4")
\; --videoPlayer:load("https://www.youtube.com/watch?v=hWUiLJnEYJI")
\; videoPlayer:load("puckette_K1.mp4") \; videoPlayer:setLoopState(OF_LOOP_NORMAL)
\; videoPlayer:setPaused(true) \; fbo:allocate(800 \, 600) \; fbo2:allocate(800
\, 600) \; --ofSetFrameRate(30) \; --ofSetVerticalSync(false) \; end
\; \; function ofelia.glsl(s) \; shader1:load(shaderDir .. s) \; end
\; \; function ofelia.setTempo(f) \; videoPlayer:setSpeed(f / 100)
\; end \; \; function ofelia.stop() \; videoPlayer:stop() \; videoPlayer:setPosition(0)
\; end \; \; function ofelia.start(f) \; if f == 1 then \; videoPlayer:play()
\; else \; videoPlayer:stop() \; end \; end \; \; function ofelia.setVolume(f)
\; videoPlayer:setVolume(f / 100) \; end \; \; function ofelia.update()
\; videoPlayer:update() \; if ofelia.framePosition[1] == 1 then \;
videoPlayer:setPosition(ofelia.framePosition[2]) \; ofelia.framePosition[1]
= 0 \; end \; end \; \; function ofelia.draw() \; fbo:beginFbo() \;
ofClear(255 \, 255 \, 255 \, 0) \; videoPlayer:draw(0 \, 0 \, 800 \,
600) \; fbo:endFbo() \; local mouseX = ofGetMouseX() \; local mouseY
= ofGetMouseY() \; shader1:beginShader() \; shader1:setUniformTexture("Tex0"
\, fbo:getTexture() \, 0) \; shader1:setUniform1f("time" \, ofGetElapsedTimeMillis())
\; shader1:setUniform2f("resolution" \, 800 \, 600) \; shader1:setUniform2f("center"
\, 800 / 2 \, 600 / 2) \; shader1:setUniform2f("mouse" \, mouseX \,
mouseY) \; \; shader1:setUniform1f("Bleach_Opacity" \, ofelia.Bleach_Opacity)
\; shader1:setUniform1f("Bokeh_Bias" \, ofelia.Bokeh_Bias / 100) \;
shader1:setUniform1f("Bokeh_Focus" \, ofelia.Bokeh_Focus / 100) \;
shader1:setUniform1f("Contrast_Contrast" \, ofelia.Contrast_Contrast
/ 100) \; shader1:setUniform1f("Contrast_Multiple" \, ofelia.Contrast_Multiple
/ 100) \; shader1:setUniform1f("Contrast_Brightness" \, ofelia.Contrast_Brightness
/ 100) \; shader1:setUniform1f("CircleWarp_Rotation" \, ofelia.CircleWarp_Rotation
/ 100) \; shader1:setUniform1f("CircleWarp_Radius" \, ofelia.CircleWarp_Radius
/ 200) \; shader1:setUniform1f("GaussianBlur_Radius" \, ofelia.GaussianBlur_Radius
/ 100) \; shader1:setUniform1f("Grain_Intensity" \, ofelia.Grain_Intensity)
\; shader1:setUniform1f("GreyScale_Factor" \, ofelia.GreyScale_Factor
/ 100) \; shader1:setUniform1f("HSBShift_Hue" \, ofelia.HSBShift_Hue
/ 100) \; shader1:setUniform1f("HSBShift_Brightness" \, ofelia.HSBShift_Brightness
/ 100) \; shader1:setUniform1f("HSBShift_Saturation" \, ofelia.HSBShift_Saturation
/ 100) \; shader1:setUniform1f("Kaleidoscope_Segments" \, ofelia.Kaleidoscope_Segments)
\; shader1:setUniform1f("Kaleidoscope2_Sides" \, ofelia.Kaleidoscope2_Sides)
\; shader1:setUniform1f("Kaleidoscope2_Angle" \, ofelia.Kaleidoscope2_Angle
/ 100) \; shader1:setUniform1f("Kaleidoscope2_SlideX" \, ofelia.Kaleidoscope2_SlideX
/ 100) \; shader1:setUniform1f("Kaleidoscope2_SlideY" \, ofelia.Kaleidoscope2_SlideY
/ 100) \; shader1:setUniform1f("MetaImage_MosaicNumber" \, ofelia.MetaImage_MosaicNumber)
\; shader1:setUniform1f("MetaImage_ColorFade" \, ofelia.MetaImage_ColorFade
/ 100) \; shader1:setUniform1f("MosaicColor_MosaicNumber" \, ofelia.MosaicColor_MosaicNumber)
\; shader1:setUniform1f("NoiseWarp_Frequency" \, ofelia.NoiseWarp_Frequency)
\; shader1:setUniform1f("NoiseWarp_Amplitude" \, ofelia.NoiseWarp_Amplitude
/ 100) \; shader1:setUniform1f("NoiseWarp_Speed" \, ofelia.NoiseWarp_Speed
/ 10000) \; shader1:setUniform1f("Pixelate_XPixels" \, ofelia.Pixelate_XPixels)
\; shader1:setUniform1f("Pixelate_YPixels" \, ofelia.Pixelate_YPixels)
\; shader1:setUniform1f("PositionShift_RateX" \, ofelia.PositionShift_RateX
/ 100) \; shader1:setUniform1f("PositionShift_RateY" \, ofelia.PositionShift_RateY
/ 100) \; shader1:setUniform1f("RGBShift_Angle" \, ofelia.RGBShift_Angle
/ 100) \; shader1:setUniform1f("RGBShift_Amount" \, ofelia.RGBShift_Amount
/ 100) \; shader1:setUniform1f("VertlTiltShift_V" \, ofelia.VertlTiltShift_V
/ 100) \; shader1:setUniform1f("VertlTiltShift_R" \, ofelia.VertlTiltShift_R
/ 100) \; fbo2:beginFbo() \; ofClear(255 \, 255 \, 255 \, 0) \; ofDrawRectangle(0
\, 0 \, 800 \, 600) \; fbo2:endFbo() \; shader1:endShader() \; fbo2:draw(20
\, 20 \, 800 \, 600) \; ofSetColor(20 \, 170 \, 150) \; ofDrawRectangle(20
\, 640 \, 800 \, 200) \; ofSetColor(20 \, 130 \, 150) \; ofDrawRectangle(25
\, 645 \, 390 \, 190) \; ofSetColor(20 \, 130 \, 150) \; ofDrawRectangle(425
\, 645 \, 390 \, 190) \; outputList[1] = videoPlayer:getPosition()
\; outputList[2] = videoPlayer:getCurrentFrame() \; outputList[3] =
videoPlayer:getTotalNumFrames() \; return outputList \; end \; \; function
ofelia.exit() \; videoPlayer:close() \; shader1:unload() \; end \;
;
#N canvas 471 187 1147 802 gui 0;
#X obj 183 159 s \$0-stop;
#X obj 261 275 s \$0-setVolume;
#X obj 249 487 s \$0-setPosition;
#X obj 273 675 s \$0-manualTempoSlider;
#X obj 195 583 s \$0-manualTempo;
#X obj 267 344 loadbang;
#X obj 279 390 s \$0-setTempo;
#X msg 249 252 70;
#X obj 249 228 loadbang;
#X obj 261 629 loadbang;
#X msg 261 652 100;
#X obj 42 136 ofelia_label 30 650 100 20;
#X obj 42 67 ofelia_toggle 135 650 20;
#X obj 195 90 loadbang;
#X msg 195 113 symbol Start;
#X obj 195 182 loadbang;
#X msg 195 205 symbol Stop;
#X obj 42 228 ofelia_label 30 675 100 20;
#X obj 42 159 ofelia_bang 135 675 20;
#X obj 195 298 loadbang;
#X obj 42 275 ofelia_hSlider 135 700 100 20 0 100;
#X obj 42 344 ofelia_label 30 700 100 20;
#X obj 195 418 loadbang;
#X msg 195 321 symbol Volume;
#X obj 42 464 ofelia_label 30 725 100 20;
#X msg 195 441 symbol Tempo;
#X obj 195 514 loadbang;
#X obj 42 487 ofelia_hSlider 135 750 100 20 0 1;
#X obj 42 560 ofelia_label 30 750 100 20;
#X msg 195 537 symbol Position;
#X obj 42 44 inlet;
#X obj 195 606 loadbang;
#X msg 195 629 symbol MTempo;
#X obj 195 698 loadbang;
#X msg 195 721 symbol MTempo;
#X obj 464 738 outlet;
#X obj 42 675 ofelia_hSlider 135 800 100 20 -500 500;
#X obj 42 583 ofelia_toggle 135 775 20;
#X obj 42 744 ofelia_label 30 800 100 20;
#X obj 42 652 ofelia_label 30 775 100 20;
#X obj 464 209 ofelia_bang 500 650 20;
#X obj 464 255 ofelia_label 525 650 150 20;
#X obj 464 278 ofelia_bang 680 650 20;
#X obj 607 278 s \$0-shaderPlus;
#X obj 607 209 s \$0-shaderMinuus;
#N canvas 67 205 483 444 gui_positionShift 0;
#X obj 212 143 loadbang;
#X obj 212 325 loadbang;
#X obj 53 29 inlet;
#X obj 53 394 outlet;
#X obj 53 73 spigot;
#X obj 53 256 spigot;
#X obj 86 29 r \$0-subViewNum;
#X obj 86 212 r \$0-subViewNum;
#X obj 53 189 ofelia_label 525 700 100 20;
#X obj 53 371 ofelia_label 525 725 100 20;
#X obj 53 96 ofelia_number 630 700 60 20 -1000 1000;
#X obj 53 279 ofelia_number 630 725 60 20 -1000 1000;
#X msg 212 166 symbol RateX;
#X msg 212 348 symbol RateY;
#X obj 86 52 == 15;
#X obj 86 235 == 15;
#X obj 278 50 loadbang;
#X msg 278 73 140;
#X obj 278 233 loadbang;
#X msg 278 256 40;
#X msg 278 119 PositionShift_RateX \$1;
#X obj 278 143 s \$0-videoPlayer;
#X obj 278 326 s \$0-videoPlayer;
#X msg 278 302 PositionShift_RateY \$1;
#X connect 0 0 12 0;
#X connect 1 0 13 0;
#X connect 2 0 4 0;
#X connect 4 0 10 0;
#X connect 5 0 11 0;
#X connect 6 0 14 0;
#X connect 7 0 15 0;
#X connect 8 0 5 0;
#X connect 9 0 3 0;
#X connect 10 0 8 0;
#X connect 10 1 20 0;
#X connect 11 0 9 0;
#X connect 11 1 23 0;
#X connect 12 0 8 1;
#X connect 13 0 9 1;
#X connect 14 0 4 1;
#X connect 14 0 10 0;
#X connect 15 0 5 1;
#X connect 15 0 11 0;
#X connect 16 0 17 0;
#X connect 17 0 10 1;
#X connect 18 0 19 0;
#X connect 19 0 11 1;
#X connect 20 0 21 0;
#X connect 23 0 22 0;
#X restore 672 393 pd gui_positionShift;
#N canvas 67 237 499 508 gui_Pixelate 0;
#X obj 268 164 loadbang;
#X obj 268 369 loadbang;
#X obj 109 28 inlet;
#X obj 109 438 outlet;
#X obj 109 72 spigot;
#X obj 109 277 spigot;
#X obj 142 28 r \$0-subViewNum;
#X obj 142 233 r \$0-subViewNum;
#X obj 109 210 ofelia_label 525 700 100 20;
#X obj 109 415 ofelia_label 525 725 100 20;
#X obj 142 51 == 14;
#X obj 142 256 == 14;
#X msg 268 187 symbol YPixels;
#X msg 268 392 symbol XPixels;
#X obj 109 95 ofelia_number 630 700 60 20 1 200;
#X obj 109 300 ofelia_number 630 725 60 20 1 200;
#X obj 304 49 loadbang;
#X msg 304 72 100;
#X obj 304 254 loadbang;
#X msg 304 277 100;
#X msg 304 323 Pixelate_YPixels \$1;
#X obj 304 346 s \$0-videoPlayer;
#X obj 304 141 s \$0-videoPlayer;
#X msg 304 118 Pixelate_XPixels \$1;
#X connect 0 0 12 0;
#X connect 1 0 13 0;
#X connect 2 0 4 0;
#X connect 4 0 14 0;
#X connect 5 0 15 0;
#X connect 6 0 10 0;
#X connect 7 0 11 0;
#X connect 8 0 5 0;
#X connect 9 0 3 0;
#X connect 10 0 4 1;
#X connect 10 0 14 0;
#X connect 11 0 5 1;
#X connect 11 0 15 0;
#X connect 12 0 8 1;
#X connect 13 0 9 1;
#X connect 14 0 8 0;
#X connect 14 1 23 0;
#X connect 15 0 9 0;
#X connect 15 1 20 0;
#X connect 16 0 17 0;
#X connect 17 0 14 1;
#X connect 18 0 19 0;
#X connect 19 0 15 1;
#X connect 20 0 21 0;
#X connect 23 0 22 0;
#X restore 659 416 pd gui_Pixelate;
#N canvas 67 221 566 444 gui_rgbShift 0;
#X obj 268 141 loadbang;
#X obj 268 323 loadbang;
#X obj 109 28 inlet;
#X obj 109 392 outlet;
#X obj 109 72 spigot;
#X obj 109 254 spigot;
#X obj 142 28 r \$0-subViewNum;
#X obj 142 210 r \$0-subViewNum;
#X obj 109 187 ofelia_label 525 700 100 20;
#X obj 109 369 ofelia_label 525 725 100 20;
#X obj 109 95 ofelia_number 630 700 60 20 -1000 1000;
#X obj 109 277 ofelia_number 630 725 60 20 -1000 1000;
#X msg 268 164 symbol Angle;
#X msg 268 346 symbol Amount;
#X obj 142 51 == 16;
#X obj 142 233 == 16;
#X obj 334 49 loadbang;
#X msg 334 72 -180;
#X obj 334 231 loadbang;
#X msg 334 254 30;
#X msg 334 118 RGBShift_Angle \$1;
#X msg 334 300 RGBShift_Amount \$1;
#X obj 334 141 s \$0-videoPlayer;
#X obj 334 323 s \$0-videoPlayer;
#X connect 0 0 12 0;
#X connect 1 0 13 0;
#X connect 2 0 4 0;
#X connect 4 0 10 0;
#X connect 5 0 11 0;
#X connect 6 0 14 0;
#X connect 7 0 15 0;
#X connect 8 0 5 0;
#X connect 9 0 3 0;
#X connect 10 0 8 0;
#X connect 10 1 20 0;
#X connect 11 0 9 0;
#X connect 11 1 21 0;
#X connect 12 0 8 1;
#X connect 13 0 9 1;
#X connect 14 0 4 1;
#X connect 14 0 10 0;
#X connect 15 0 5 1;
#X connect 15 0 11 0;
#X connect 16 0 17 0;
#X connect 17 0 10 1;
#X connect 18 0 19 0;
#X connect 19 0 11 1;
#X connect 20 0 22 0;
#X connect 21 0 23 0;
#X restore 685 370 pd gui_rgbShift;
#N canvas 67 229 566 432 gui_vTiltShift 0;
#X obj 268 118 loadbang;
#X obj 268 277 loadbang;
#X obj 109 28 inlet;
#X obj 109 346 outlet;
#X obj 109 72 spigot;
#X obj 109 231 spigot;
#X obj 142 28 r \$0-subViewNum;
#X obj 142 187 r \$0-subViewNum;
#X obj 109 164 ofelia_label 525 700 100 20;
#X obj 109 323 ofelia_label 525 725 100 20;
#X obj 109 95 ofelia_number 630 700 60 20 -1000 1000;
#X obj 109 254 ofelia_number 630 725 60 20 -1000 1000;
#X msg 268 141 symbol V;
#X msg 268 300 symbol R;
#X obj 142 51 == 17;
#X obj 142 210 == 17;
#X obj 334 49 loadbang;
#X msg 334 72 6;
#X obj 334 208 loadbang;
#X msg 334 231 120;
#X msg 334 118 VertlTiltShift_V \$1;
#X obj 334 141 s \$0-videoPlayer;
#X obj 334 300 s \$0-videoPlayer;
#X msg 334 277 VertlTiltShift_R \$1;
#X connect 0 0 12 0;
#X connect 1 0 13 0;
#X connect 2 0 4 0;
#X connect 4 0 10 0;
#X connect 5 0 11 0;
#X connect 6 0 14 0;
#X connect 7 0 15 0;
#X connect 8 0 5 0;
#X connect 9 0 3 0;
#X connect 10 0 8 0;
#X connect 10 1 20 0;
#X connect 11 0 9 0;
#X connect 11 1 23 0;
#X connect 12 0 8 1;
#X connect 13 0 9 1;
#X connect 14 0 4 1;
#X connect 14 0 10 0;
#X connect 15 0 5 1;
#X connect 15 0 11 0;
#X connect 16 0 17 0;
#X connect 17 0 10 1;
#X connect 18 0 19 0;
#X connect 19 0 11 1;
#X connect 20 0 21 0;
#X connect 23 0 22 0;
#X restore 698 347 pd gui_vTiltShift;
#N canvas 1278 238 432 375 gui_bleach 0;
#X obj 237 202 loadbang;
#X msg 237 225 symbol Opacity;
#X obj 78 89 inlet;
#X obj 78 271 outlet;
#X obj 78 110 spigot;
#X obj 111 66 r \$0-subViewNum;
#X obj 111 89 == 0;
#X obj 78 133 ofelia_number 630 700 60 20 1 100;
#X obj 78 248 ofelia_label 525 700 100 20;
#X obj 273 87 loadbang;
#X msg 273 110 23;
#X obj 273 179 s \$0-videoPlayer;
#X msg 273 156 Bleach_Opacity \$1;
#X connect 0 0 1 0;
#X connect 1 0 8 1;
#X connect 2 0 4 0;
#X connect 4 0 7 0;
#X connect 5 0 6 0;
#X connect 6 0 4 1;
#X connect 6 0 7 0;
#X connect 7 0 8 0;
#X connect 7 1 12 0;
#X connect 8 0 3 0;
#X connect 9 0 10 0;
#X connect 10 0 7 1;
#X connect 12 0 11 0;
#X restore 491 715 pd gui_bleach;
#N canvas 649 251 499 495 gui_bokeh 0;
#X obj 268 164 loadbang;
#X msg 268 187 symbol Bias;
#X obj 268 369 loadbang;
#X obj 109 28 inlet;
#X obj 109 438 outlet;
#X obj 109 72 spigot;
#X obj 142 51 == 1;
#X obj 109 277 spigot;
#X obj 142 256 == 1;
#X obj 142 28 r \$0-subViewNum;
#X obj 142 233 r \$0-subViewNum;
#X obj 109 95 ofelia_number 630 700 60 20 0 200;
#X obj 109 210 ofelia_label 525 700 100 20;
#X obj 109 300 ofelia_number 630 725 60 20 0 200;
#X obj 109 415 ofelia_label 525 725 100 20;
#X msg 268 392 symbol Focus;
#X obj 304 49 loadbang;
#X msg 304 72 181;
#X obj 304 254 loadbang;
#X msg 304 277 125;
#X msg 304 118 Bokeh_Bias \$1;
#X obj 304 141 s \$0-videoPlayer;
#X obj 304 346 s \$0-videoPlayer;
#X msg 304 323 Bokeh_Focus \$1;
#X connect 0 0 1 0;
#X connect 1 0 12 1;
#X connect 2 0 15 0;
#X connect 3 0 5 0;
#X connect 5 0 11 0;
#X connect 6 0 5 1;
#X connect 6 0 11 0;
#X connect 7 0 13 0;
#X connect 8 0 7 1;
#X connect 8 0 13 0;
#X connect 9 0 6 0;
#X connect 10 0 8 0;
#X connect 11 0 12 0;
#X connect 11 1 20 0;
#X connect 12 0 7 0;
#X connect 13 0 14 0;
#X connect 13 1 23 0;
#X connect 14 0 4 0;
#X connect 15 0 14 1;
#X connect 16 0 17 0;
#X connect 17 0 11 1;
#X connect 18 0 19 0;
#X connect 19 0 13 1;
#X connect 20 0 21 0;
#X connect 23 0 22 0;
#X restore 503 692 pd gui_bokeh;
#N canvas 1308 325 499 523 gui_circleWarp 0;
#X obj 268 164 loadbang;
#X obj 268 369 loadbang;
#X obj 109 28 inlet;
#X obj 109 438 outlet;
#X obj 109 72 spigot;
#X obj 109 277 spigot;
#X obj 142 28 r \$0-subViewNum;
#X obj 142 233 r \$0-subViewNum;
#X obj 109 95 ofelia_number 630 700 60 20 0 200;
#X obj 109 210 ofelia_label 525 700 100 20;
#X obj 109 415 ofelia_label 525 725 100 20;
#X msg 268 392 symbol Radius;
#X msg 268 187 symbol Rotation;
#X obj 109 300 ofelia_number 630 725 60 20 1 90;
#X obj 142 51 == 2;
#X obj 142 256 == 2;
#X obj 304 49 loadbang;
#X msg 304 72 200;
#X obj 298 254 loadbang;
#X msg 298 277 90;
#X msg 304 118 CircleWarp_Rotation \$1;
#X obj 304 141 s \$0-videoPlayer;
#X obj 298 346 s \$0-videoPlayer;
#X msg 298 323 CircleWarp_Radius \$1;
#X connect 0 0 12 0;
#X connect 1 0 11 0;
#X connect 2 0 4 0;
#X connect 4 0 8 0;
#X connect 5 0 13 0;
#X connect 6 0 14 0;
#X connect 7 0 15 0;
#X connect 8 0 9 0;
#X connect 8 1 20 0;
#X connect 9 0 5 0;
#X connect 10 0 3 0;
#X connect 11 0 10 1;
#X connect 12 0 9 1;
#X connect 13 0 10 0;
#X connect 13 1 23 0;
#X connect 14 0 4 1;
#X connect 14 0 8 0;
#X connect 15 0 5 1;
#X connect 15 0 13 0;
#X connect 16 0 17 0;
#X connect 17 0 8 1;
#X connect 18 0 19 0;
#X connect 19 0 13 1;
#X connect 20 0 21 0;
#X connect 23 0 22 0;
#X restore 516 669 pd gui_circleWarp;
#N canvas 280 239 499 701 gui_contrast 0;
#X obj 268 164 loadbang;
#X obj 268 369 loadbang;
#X obj 109 28 inlet;
#X obj 109 72 spigot;
#X obj 109 277 spigot;
#X obj 142 28 r \$0-subViewNum;
#X obj 142 233 r \$0-subViewNum;
#X obj 109 95 ofelia_number 630 700 60 20 0 200;
#X obj 109 210 ofelia_label 525 700 100 20;
#X obj 109 415 ofelia_label 525 725 100 20;
#X obj 109 300 ofelia_number 630 725 60 20 1 90;
#X msg 268 392 symbol Brightness;
#X msg 268 187 symbol Contrast;
#X obj 268 574 loadbang;
#X obj 109 643 outlet;
#X obj 109 482 spigot;
#X obj 142 438 r \$0-subViewNum;
#X msg 268 597 symbol Multiple;
#X obj 142 461 == 3;
#X obj 142 256 == 3;
#X obj 142 51 == 3;
#X obj 109 505 ofelia_number 630 750 60 20 1 90;
#X obj 109 620 ofelia_label 525 750 100 20;
#X obj 304 49 loadbang;
#X msg 304 72 181;
#X obj 298 254 loadbang;
#X msg 298 277 154;
#X obj 298 459 loadbang;
#X msg 298 482 62;
#X msg 304 118 Contrast_Contrast \$1;
#X obj 304 141 s \$0-videoPlayer;
#X obj 298 346 s \$0-videoPlayer;
#X obj 298 551 s \$0-videoPlayer;
#X msg 298 528 Contrast_Multiple \$1;
#X msg 298 323 Contrast_Brightness \$1;
#X connect 0 0 12 0;
#X connect 1 0 11 0;
#X connect 2 0 3 0;
#X connect 3 0 7 0;
#X connect 4 0 10 0;
#X connect 5 0 20 0;
#X connect 6 0 19 0;
#X connect 7 0 8 0;
#X connect 7 1 29 0;
#X connect 8 0 4 0;
#X connect 9 0 15 0;
#X connect 10 0 9 0;
#X connect 10 1 34 0;
#X connect 11 0 9 1;
#X connect 12 0 8 1;
#X connect 13 0 17 0;
#X connect 15 0 21 0;
#X connect 16 0 18 0;
#X connect 17 0 22 1;
#X connect 18 0 15 1;
#X connect 18 0 21 0;
#X connect 19 0 4 1;
#X connect 19 0 10 0;
#X connect 20 0 3 1;
#X connect 20 0 7 0;
#X connect 21 0 22 0;
#X connect 21 1 33 0;
#X connect 22 0 14 0;
#X connect 23 0 24 0;
#X connect 24 0 7 1;
#X connect 25 0 26 0;
#X connect 26 0 10 1;
#X connect 27 0 28 0;
#X connect 28 0 21 1;
#X connect 29 0 30 0;
#X connect 33 0 32 0;
#X connect 34 0 31 0;
#X restore 529 646 pd gui_contrast;
#N canvas 390 418 482 332 gui_blur 0;
#X obj 237 202 loadbang;
#X obj 78 89 inlet;
#X obj 78 271 outlet;
#X obj 78 110 spigot;
#X obj 111 66 r \$0-subViewNum;
#X obj 78 248 ofelia_label 525 700 100 20;
#X obj 111 89 == 4;
#X obj 78 133 ofelia_number 630 700 60 20 0 200;
#X msg 237 225 symbol Radius;
#X obj 273 87 loadbang;
#X msg 273 110 25;
#X msg 273 156 GaussianBlur_Radius \$1;
#X obj 273 179 s \$0-videoPlayer;
#X connect 0 0 8 0;
#X connect 1 0 3 0;
#X connect 3 0 7 0;
#X connect 4 0 6 0;
#X connect 5 0 2 0;
#X connect 6 0 3 1;
#X connect 6 0 7 0;
#X connect 7 0 5 0;
#X connect 7 1 11 0;
#X connect 8 0 5 1;
#X connect 9 0 10 0;
#X connect 10 0 7 1;
#X connect 11 0 12 0;
#X restore 542 623 pd gui_blur;
#N canvas 557 387 486 383 gui_grain 0;
#X obj 237 203 loadbang;
#X obj 78 89 inlet;
#X obj 78 272 outlet;
#X obj 78 110 spigot;
#X obj 111 66 r \$0-subViewNum;
#X obj 78 249 ofelia_label 525 700 100 20;
#X obj 78 133 ofelia_number 630 700 60 20 0 200;
#X msg 237 226 symbol Intensity;
#X obj 111 89 == 5;
#X obj 273 87 loadbang;
#X msg 273 110 29;
#X msg 273 156 Grain_Intensity \$1;
#X obj 273 179 s \$0-videoPlayer;
#X connect 0 0 7 0;
#X connect 1 0 3 0;
#X connect 3 0 6 0;
#X connect 4 0 8 0;
#X connect 5 0 2 0;
#X connect 6 0 5 0;
#X connect 6 1 11 0;
#X connect 7 0 5 1;
#X connect 8 0 3 1;
#X connect 8 0 6 0;
#X connect 9 0 10 0;
#X connect 10 0 6 1;
#X connect 11 0 12 0;
#X restore 555 600 pd gui_grain;
#N canvas 469 254 486 364 gui_greyScale 0;
#X obj 237 202 loadbang;
#X obj 78 89 inlet;
#X obj 78 271 outlet;
#X obj 78 110 spigot;
#X obj 111 66 r \$0-subViewNum;
#X obj 78 248 ofelia_label 525 700 100 20;
#X obj 78 133 ofelia_number 630 700 60 20 0 200;
#X msg 237 225 symbol Factor;
#X obj 111 89 == 6;
#X obj 273 87 loadbang;
#X msg 273 110 0;
#X msg 273 156 GreyScale_Factor \$1;
#X obj 273 179 s \$0-videoPlayer;
#X connect 0 0 7 0;
#X connect 1 0 3 0;
#X connect 3 0 6 0;
#X connect 4 0 8 0;
#X connect 5 0 2 0;
#X connect 6 0 5 0;
#X connect 6 1 11 0;
#X connect 7 0 5 1;
#X connect 8 0 3 1;
#X connect 8 0 6 0;
#X connect 9 0 10 0;
#X connect 10 0 6 1;
#X connect 11 0 12 0;
#X restore 568 577 pd gui_greyScale;
#N canvas 381 193 499 703 gui_hsbShift 0;
#X obj 268 164 loadbang;
#X obj 268 369 loadbang;
#X obj 109 28 inlet;
#X obj 109 72 spigot;
#X obj 109 277 spigot;
#X obj 142 28 r \$0-subViewNum;
#X obj 142 233 r \$0-subViewNum;
#X obj 109 210 ofelia_label 525 700 100 20;
#X obj 109 415 ofelia_label 525 725 100 20;
#X obj 268 574 loadbang;
#X obj 109 643 outlet;
#X obj 109 482 spigot;
#X obj 142 438 r \$0-subViewNum;
#X obj 109 620 ofelia_label 525 750 100 20;
#X obj 142 51 == 7;
#X obj 142 256 == 7;
#X obj 142 461 == 7;
#X obj 109 95 ofelia_number 630 700 60 20 0 100;
#X obj 109 300 ofelia_number 630 725 60 20 0 100;
#X obj 109 505 ofelia_number 630 750 60 20 0 100;
#X msg 268 187 symbol Hue;
#X msg 268 392 symbol Saturation;
#X msg 268 597 symbol Brightness;
#X obj 304 49 loadbang;
#X msg 304 72 56;
#X obj 304 254 loadbang;
#X obj 304 459 loadbang;
#X msg 304 277 87;
#X msg 304 482 40;
#X msg 304 118 HSBShift_Hue \$1;
#X obj 304 141 s \$0-videoPlayer;
#X obj 304 346 s \$0-videoPlayer;
#X msg 304 323 HSBShift_Saturation \$1;
#X obj 304 551 s \$0-videoPlayer;
#X msg 304 528 HSBShift_Brightness \$1;
#X connect 0 0 20 0;
#X connect 1 0 21 0;
#X connect 2 0 3 0;
#X connect 3 0 17 0;
#X connect 4 0 18 0;
#X connect 5 0 14 0;
#X connect 6 0 15 0;
#X connect 7 0 4 0;
#X connect 8 0 11 0;
#X connect 9 0 22 0;
#X connect 11 0 19 0;
#X connect 12 0 16 0;
#X connect 13 0 10 0;
#X connect 14 0 3 1;
#X connect 14 0 17 0;
#X connect 15 0 4 1;
#X connect 15 0 18 0;
#X connect 16 0 11 1;
#X connect 16 0 19 0;
#X connect 17 0 7 0;
#X connect 17 1 29 0;
#X connect 18 0 8 0;
#X connect 18 1 32 0;
#X connect 19 0 13 0;
#X connect 19 1 34 0;
#X connect 20 0 7 1;
#X connect 21 0 8 1;
#X connect 22 0 13 1;
#X connect 23 0 24 0;
#X connect 24 0 17 1;
#X connect 25 0 27 0;
#X connect 26 0 28 0;
#X connect 27 0 18 1;
#X connect 28 0 19 1;
#X connect 29 0 30 0;
#X connect 32 0 31 0;
#X connect 34 0 33 0;
#X restore 581 554 pd gui_hsbShift;
#N canvas 273 270 486 319 gui_kaleidoscope 0;
#X obj 237 202 loadbang;
#X obj 78 89 inlet;
#X obj 78 271 outlet;
#X obj 78 110 spigot;
#X obj 111 66 r \$0-subViewNum;
#X obj 78 248 ofelia_label 525 700 100 20;
#X obj 78 133 ofelia_number 630 700 60 20 0 200;
#X obj 111 89 == 9;
#X msg 237 225 symbol Segments;
#X obj 273 87 loadbang;
#X msg 273 110 5;
#X msg 273 156 Kaleidoscope_Segments \$1;
#X obj 273 179 s \$0-videoPlayer;
#X connect 0 0 8 0;
#X connect 1 0 3 0;
#X connect 3 0 6 0;
#X connect 4 0 7 0;
#X connect 5 0 2 0;
#X connect 6 0 5 0;
#X connect 6 1 11 0;
#X connect 7 0 3 1;
#X connect 7 0 6 0;
#X connect 8 0 5 1;
#X connect 9 0 10 0;
#X connect 10 0 6 1;
#X connect 11 0 12 0;
#X restore 594 531 pd gui_kaleidoscope;
#N canvas 371 108 557 845 gui_kaleidoscope2 0;
#X obj 268 171 loadbang;
#X obj 268 353 loadbang;
#X obj 109 35 inlet;
#X obj 109 79 spigot;
#X obj 109 284 spigot;
#X obj 142 35 r \$0-subViewNum;
#X obj 142 240 r \$0-subViewNum;
#X obj 109 217 ofelia_label 525 700 100 20;
#X obj 109 399 ofelia_label 525 725 100 20;
#X obj 268 535 loadbang;
#X obj 109 466 spigot;
#X obj 142 422 r \$0-subViewNum;
#X obj 109 581 ofelia_label 525 750 100 20;
#X msg 268 194 symbol Sides;
#X obj 109 102 ofelia_number 630 700 60 20 1 500;
#X msg 268 376 symbol Angle;
#X obj 109 307 ofelia_number 630 725 60 20 -1000 1000;
#X obj 109 489 ofelia_number 630 750 60 20 -1000 1000;
#X obj 268 717 loadbang;
#X obj 109 786 outlet;
#X obj 109 648 spigot;
#X obj 142 604 r \$0-subViewNum;
#X obj 142 58 == 10;
#X obj 142 263 == 10;
#X obj 142 445 == 10;
#X obj 142 627 == 10;
#X obj 304 56 loadbang;
#X msg 304 79 32;
#X obj 334 261 loadbang;
#X msg 334 284 100;
#X obj 334 443 loadbang;
#X msg 334 466 25;
#X obj 334 625 loadbang;
#X msg 334 648 40;
#X msg 304 125 Kaleidoscope2_Sides \$1;
#X obj 304 148 s \$0-videoPlayer;
#X obj 334 353 s \$0-videoPlayer;
#X msg 334 330 Kaleidoscope2_Angle \$1;
#X obj 334 535 s \$0-videoPlayer;
#X msg 334 512 Kaleidoscope2_SlideX \$1;
#X obj 334 717 s \$0-videoPlayer;
#X msg 334 694 Kaleidoscope2_SlideY \$1;
#X msg 268 558 symbol SlideX;
#X msg 268 740 symbol SlideY;
#X obj 109 671 ofelia_number 630 775 60 20 -1000 1000;
#X obj 109 763 ofelia_label 525 775 100 20;
#X connect 0 0 13 0;
#X connect 1 0 15 0;
#X connect 2 0 3 0;
#X connect 3 0 14 0;
#X connect 4 0 16 0;
#X connect 5 0 22 0;
#X connect 6 0 23 0;
#X connect 7 0 4 0;
#X connect 8 0 10 0;
#X connect 9 0 42 0;
#X connect 10 0 17 0;
#X connect 11 0 24 0;
#X connect 12 0 20 0;
#X connect 13 0 7 1;
#X connect 14 0 7 0;
#X connect 14 1 34 0;
#X connect 15 0 8 1;
#X connect 16 0 8 0;
#X connect 16 1 37 0;
#X connect 17 0 12 0;
#X connect 17 1 39 0;
#X connect 18 0 43 0;
#X connect 20 0 44 0;
#X connect 21 0 25 0;
#X connect 22 0 3 1;
#X connect 22 0 14 0;
#X connect 23 0 4 1;
#X connect 23 0 16 0;
#X connect 24 0 10 1;
#X connect 24 0 17 0;
#X connect 25 0 20 1;
#X connect 25 0 44 0;
#X connect 26 0 27 0;
#X connect 27 0 14 1;
#X connect 28 0 29 0;
#X connect 29 0 16 1;
#X connect 30 0 31 0;
#X connect 31 0 17 1;
#X connect 32 0 33 0;
#X connect 33 0 44 1;
#X connect 34 0 35 0;
#X connect 37 0 36 0;
#X connect 39 0 38 0;
#X connect 41 0 40 0;
#X connect 42 0 12 1;
#X connect 43 0 45 1;
#X connect 44 0 45 0;
#X connect 44 1 41 0;
#X connect 45 0 19 0;
#X restore 607 508 pd gui_kaleidoscope2;
#N canvas 232 277 499 498 gui_metaImage 0;
#X obj 247 170 loadbang;
#X obj 247 375 loadbang;
#X obj 88 34 inlet;
#X obj 88 444 outlet;
#X obj 88 78 spigot;
#X obj 88 283 spigot;
#X obj 121 34 r \$0-subViewNum;
#X obj 121 239 r \$0-subViewNum;
#X obj 88 216 ofelia_label 525 700 100 20;
#X obj 88 421 ofelia_label 525 725 100 20;
#X obj 88 101 ofelia_number 630 700 60 20 1 200;
#X msg 247 398 symbol ColorFade;
#X obj 121 57 == 11;
#X obj 121 262 == 11;
#X obj 283 55 loadbang;
#X msg 283 78 4;
#X obj 283 260 loadbang;
#X obj 88 306 ofelia_number 630 725 60 20 0 200;
#X msg 283 283 200;
#X msg 283 124 MetaImage_MosaicNumber \$1;
#X obj 283 147 s \$0-videoPlayer;
#X obj 283 352 s \$0-videoPlayer;
#X msg 283 329 MetaImage_ColorFade \$1;
#X msg 247 193 symbol Number;
#X connect 0 0 23 0;
#X connect 1 0 11 0;
#X connect 2 0 4 0;
#X connect 4 0 10 0;
#X connect 5 0 17 0;
#X connect 6 0 12 0;
#X connect 7 0 13 0;
#X connect 8 0 5 0;
#X connect 9 0 3 0;
#X connect 10 0 8 0;
#X connect 10 1 19 0;
#X connect 11 0 9 1;
#X connect 12 0 4 1;
#X connect 12 0 10 0;
#X connect 13 0 5 1;
#X connect 13 0 17 0;
#X connect 14 0 15 0;
#X connect 15 0 10 1;
#X connect 16 0 18 0;
#X connect 17 0 9 0;
#X connect 17 1 22 0;
#X connect 18 0 17 1;
#X connect 19 0 20 0;
#X connect 22 0 21 0;
#X connect 23 0 8 1;
#X restore 620 485 pd gui_metaImage;
#N canvas 67 388 486 352 gui_mosaicColor 0;
#X obj 237 203 loadbang;
#X obj 78 89 inlet;
#X obj 78 272 outlet;
#X obj 78 110 spigot;
#X obj 111 66 r \$0-subViewNum;
#X obj 78 249 ofelia_label 525 700 100 20;
#X obj 78 133 ofelia_number 630 700 60 20 1 200;
#X obj 111 89 == 12;
#X obj 273 87 loadbang;
#X msg 273 110 10;
#X msg 273 156 MosaicColor_MosaicNumber \$1;
#X obj 273 179 s \$0-videoPlayer;
#X msg 237 226 symbol Number;
#X connect 0 0 12 0;
#X connect 1 0 3 0;
#X connect 3 0 6 0;
#X connect 4 0 7 0;
#X connect 5 0 2 0;
#X connect 6 0 5 0;
#X connect 6 1 10 0;
#X connect 7 0 3 1;
#X connect 7 0 6 0;
#X connect 8 0 9 0;
#X connect 9 0 6 1;
#X connect 10 0 11 0;
#X connect 12 0 5 1;
#X restore 633 462 pd gui_mosaicColor;
#N canvas 418 123 437 712 gui_noiseWarp 0;
#X obj 208 168 loadbang;
#X obj 208 373 loadbang;
#X obj 49 32 inlet;
#X obj 49 76 spigot;
#X obj 49 281 spigot;
#X obj 82 32 r \$0-subViewNum;
#X obj 82 237 r \$0-subViewNum;
#X obj 49 214 ofelia_label 525 700 100 20;
#X obj 49 419 ofelia_label 525 725 100 20;
#X obj 208 578 loadbang;
#X obj 49 647 outlet;
#X obj 49 486 spigot;
#X obj 82 442 r \$0-subViewNum;
#X obj 49 624 ofelia_label 525 750 100 20;
#X obj 82 55 == 13;
#X obj 82 260 == 13;
#X obj 82 465 == 13;
#X obj 49 99 ofelia_number 630 700 60 20 0 100;
#X obj 49 304 ofelia_number 630 725 60 20 0 100;
#X obj 49 509 ofelia_number 630 750 60 20 0 100;
#X msg 208 191 symbol Frequency;
#X msg 208 396 symbol Amplitude;
#X msg 208 601 symbol Speed;
#X obj 244 53 loadbang;
#X msg 244 76 29;
#X obj 244 258 loadbang;
#X obj 244 463 loadbang;
#X msg 244 281 4;
#X msg 244 486 32;
#X msg 244 532 NoiseWarp_Speed \$1;
#X obj 244 555 s \$0-videoPlayer;
#X obj 244 350 s \$0-videoPlayer;
#X obj 244 145 s \$0-videoPlayer;
#X msg 244 122 NoiseWarp_Frequency \$1;
#X msg 244 327 NoiseWarp_Amplitude \$1;
#X connect 0 0 20 0;
#X connect 1 0 21 0;
#X connect 2 0 3 0;
#X connect 3 0 17 0;
#X connect 4 0 18 0;
#X connect 5 0 14 0;
#X connect 6 0 15 0;
#X connect 7 0 4 0;
#X connect 8 0 11 0;
#X connect 9 0 22 0;
#X connect 11 0 19 0;
#X connect 12 0 16 0;
#X connect 13 0 10 0;
#X connect 14 0 3 1;
#X connect 14 0 17 0;
#X connect 15 0 4 1;
#X connect 15 0 18 0;
#X connect 16 0 11 1;
#X connect 16 0 19 0;
#X connect 17 0 7 0;
#X connect 17 1 33 0;
#X connect 18 0 8 0;
#X connect 18 1 34 0;
#X connect 19 0 13 0;
#X connect 19 1 29 0;
#X connect 20 0 7 1;
#X connect 21 0 8 1;
#X connect 22 0 13 1;
#X connect 23 0 24 0;
#X connect 24 0 17 1;
#X connect 25 0 27 0;
#X connect 26 0 28 0;
#X connect 27 0 18 1;
#X connect 28 0 19 1;
#X connect 29 0 30 0;
#X connect 33 0 32 0;
#X connect 34 0 31 0;
#X restore 646 439 pd gui_noiseWarp;
#X obj 491 324 t b b b b b b b b b b b b b b b b b;
#X obj 464 301 t b b;
#X obj 623 232 r \$0-shaderName;
#X floatatom 295 434 5 0 0 0 - - -;
#X msg 267 367 100;
#X obj 42 389 ofelia_hSlider 135 725 100 20 10 200;
#X obj 623 140 loadbang;
#X obj 464 186 ofelia_label 305 800 100 20;
#X msg 623 163 symbol RandomSteps, f 19;
#X obj 464 116 ofelia_toggle 280 800 20;
#X obj 617 116 s \$0-randomStep;
#X obj 195 67 s \$0-start;
#X connect 5 0 66 0;
#X connect 7 0 20 1;
#X connect 8 0 7 0;
#X connect 9 0 10 0;
#X connect 10 0 36 1;
#X connect 11 0 18 0;
#X connect 12 0 11 0;
#X connect 12 1 73 0;
#X connect 13 0 14 0;
#X connect 14 0 11 1;
#X connect 15 0 16 0;
#X connect 16 0 17 1;
#X connect 17 0 20 0;
#X connect 18 0 17 0;
#X connect 18 1 0 0;
#X connect 18 1 12 1;
#X connect 19 0 23 0;
#X connect 20 0 21 0;
#X connect 20 1 1 0;
#X connect 21 0 67 0;
#X connect 22 0 25 0;
#X connect 23 0 21 1;
#X connect 24 0 27 0;
#X connect 25 0 24 1;
#X connect 26 0 29 0;
#X connect 27 0 28 0;
#X connect 27 1 2 0;
#X connect 28 0 37 0;
#X connect 29 0 28 1;
#X connect 30 0 12 0;
#X connect 31 0 32 0;
#X connect 32 0 39 1;
#X connect 33 0 34 0;
#X connect 34 0 38 1;
#X connect 36 0 38 0;
#X connect 36 1 3 0;
#X connect 37 0 39 0;
#X connect 37 1 4 0;
#X connect 38 0 71 0;
#X connect 39 0 36 0;
#X connect 40 0 41 0;
#X connect 40 1 44 0;
#X connect 41 0 42 0;
#X connect 42 0 63 0;
#X connect 42 1 43 0;
#X connect 62 0 49 0;
#X connect 62 1 50 0;
#X connect 62 2 51 0;
#X connect 62 3 52 0;
#X connect 62 4 53 0;
#X connect 62 5 54 0;
#X connect 62 6 55 0;
#X connect 62 7 56 0;
#X connect 62 8 57 0;
#X connect 62 9 58 0;
#X connect 62 10 59 0;
#X connect 62 11 60 0;
#X connect 62 12 61 0;
#X connect 62 13 46 0;
#X connect 62 14 45 0;
#X connect 62 15 47 0;
#X connect 62 16 48 0;
#X connect 63 0 35 0;
#X connect 63 1 62 0;
#X connect 64 0 41 1;
#X connect 66 0 67 1;
#X connect 67 0 24 0;
#X connect 67 1 6 0;
#X connect 67 1 65 0;
#X connect 68 0 70 0;
#X connect 69 0 40 0;
#X connect 70 0 69 1;
#X connect 71 0 69 0;
#X connect 71 1 72 0;
#X restore 299 404 pd gui;
#X obj 172 198 random 100000;
#X obj 172 221 / 100000;
#X obj 172 176 metro 2000;
#X obj 172 153 r \$0-randomStep;
#X msg 340 211 start \$1;
#X connect 0 0 40 0;
#X connect 1 0 46 0;
#X connect 2 0 8 0;
#X connect 2 0 32 0;
#X connect 3 0 35 1;
#X connect 4 0 40 0;
#X connect 6 0 33 0;
#X connect 7 0 8 1;
#X connect 8 0 31 0;
#X connect 9 0 0 0;
#X connect 10 0 4 0;
#X connect 11 0 12 0;
#X connect 12 0 40 0;
#X connect 16 0 40 0;
#X connect 17 0 40 0;
#X connect 18 0 26 0;
#X connect 19 0 18 0;
#X connect 19 0 21 1;
#X connect 19 0 22 1;
#X connect 19 0 38 0;
#X connect 21 0 24 0;
#X connect 22 0 23 0;
#X connect 23 0 28 0;
#X connect 24 0 27 0;
#X connect 25 0 29 0;
#X connect 26 0 17 0;
#X connect 26 0 39 0;
#X connect 27 0 19 0;
#X connect 28 0 19 0;
#X connect 29 0 22 0;
#X connect 29 1 21 0;
#X connect 30 0 5 0;
#X connect 30 0 14 0;
#X connect 30 1 13 0;
#X connect 30 2 15 0;
#X connect 31 0 2 1;
#X connect 32 0 6 0;
#X connect 33 0 40 0;
#X connect 34 0 30 0;
#X connect 34 1 35 0;
#X connect 34 2 41 0;
#X connect 35 0 2 0;
#X connect 36 0 21 0;
#X connect 37 0 22 0;
#X connect 40 0 34 0;
#X connect 42 0 43 0;
#X connect 43 0 6 0;
#X connect 44 0 42 0;
#X connect 45 0 44 0;
#X connect 46 0 40 0;
