#N canvas 452 134 1121 792 10;
#X declare -path ofelia/abs;
#X obj 290 444 ofWindow;
#X msg 290 490 bang;
#X obj 290 377 declare -path ofelia/abs;
#X obj 290 398 loadbang;
#X obj 290 533 pdcontrol;
#X msg 290 513 dir 0 data/DejaVuSansMono.ttf;
#X obj 290 554 ofelia f \; ofSetWindowTitle("Ofelia GUI Jona") \; ofSetBackgroundColor(55)
\; font = ofTrueTypeFont() \; font:load(a \, 24) \;;
#X obj 290 467 ofSetup;
#X obj 27 23 ofDraw;
#X obj 258 227 nbx 5 14 -1e+037 1e+037 0 1 empty empty empty 0 -8 0
10 -262144 -1 -1 7 256;
#X obj 258 288 unpack f f;
#X obj 258 309 nbx 5 14 -1e+037 1e+037 0 0 empty empty empty 0 -8 0
10 -262144 -1 -1 93.3333 256;
#X obj 333 309 nbx 5 14 -1e+037 1e+037 0 0 empty empty empty 0 -8 0
10 -262144 -1 -1 86.6667 256;
#X obj 258 246 pack f f;
#X obj 258 187 nbx 5 14 -1e+037 1e+037 0 1 empty empty empty 0 -8 0
10 -262144 -1 -1 5 256;
#X obj 258 206 t b f;
#X obj 246 66 nbx 5 14 -1e+037 1e+037 0 0 empty empty empty 0 -8 0
10 -262144 -1 -1 90.7895 256;
#X obj 246 26 nbx 5 14 -1e+037 1e+037 0 1 empty empty empty 0 -8 0
10 -262144 -1 -1 8 256;
#X obj 198 147 nbx 5 14 -1e+037 1e+037 0 0 empty empty empty 0 -8 0
10 -262144 -1 -1 37 256;
#X obj 198 107 nbx 5 14 -1e+037 1e+037 0 1 empty empty empty 0 -8 0
10 -262144 -1 -1 40 256;
#X text 835 179 envelope sample;
#X obj 198 166 s \$0-feedback;
#X obj 258 328 s \$0-circleFrequency;
#X obj 392 329 s \$0-circleDepth;
#X obj 246 86 s \$0-volume;
#X obj 551 377 *~;
#X obj 588 439 hip~ 5;
#X obj 595 155 wrap~;
#X obj 536 155 phasor~;
#X obj 536 186 -~ 0.5;
#X obj 536 277 cos~;
#X obj 577 253 *~;
#X text 636 92 main loop: sawtooth of amplitude 9;
#X text 685 124 read frequency sequence;
#X text 651 154 9x original frequency sawtooth;
#X text 662 179 adjust for reading;
#X text 613 253 multiply envelope by audio-frequency sawtooth;
#X text 636 284 adjust amplitude and center for wavetable;
#X text 607 352 multiply by raised-cosine smoothing function;
#X msg 536 37 set \$1-arraySlider;
#X obj 536 16 r \$0-sequence;
#X msg 666 224 set \$1-arraySlider;
#X msg 657 445 set \$1-arraySlider;
#X obj 657 424 r \$0-sample;
#X floatatom 871 417 0 0 0 0 - - -;
#X obj 871 465 line~;
#X obj 871 441 pack 0 100;
#X floatatom 796 387 0 0 0 0 - - -;
#X floatatom 847 585 0 0 0 0 - - -;
#X obj 847 657 line~;
#X obj 847 633 pack 0 100;
#X obj 847 609 * 0.01;
#X obj 716 593 +~;
#X obj 829 685 *~;
#X obj 796 498 *~;
#X obj 796 411 / 100;
#X obj 707 613 hip~ 5;
#X obj 796 459 +~ 1;
#X obj 796 435 osc~ 0;
#X obj 796 522 +~ 1.46;
#X obj 796 546 vd~ G03-del;
#X obj 829 733 delwrite~ G03-del 1000;
#X obj 829 709 clip~ -1 1;
#X text 838 386 <= cycle frequency (hundredths);
#X text 924 418 <= cycle depth (msec);
#X text 888 583 <= feedback (hundredths);
#X obj 846 565 r \$0-feedback;
#X obj 817 334 r \$0-circleFrequency;
#X obj 952 337 r \$0-circleDepth;
#X obj 593 583 dbtorms;
#X obj 594 640 line~;
#X obj 629 692 *~;
#X obj 629 722 dac~;
#X obj 593 603 pack 0 50;
#X obj 689 691 *~;
#X obj 647 642 hip~ 3;
#X obj 707 642 hip~ 3;
#X obj 593 565 r \$0-volume;
#X obj 595 226 tabread4~;
#X obj 577 324 tabread4~;
#X obj 536 113 tabread~;
#X obj 27 44 ofelia_vSlider_pad 50 40 20 100 0 100;
#X obj 27 126 ofelia_vKnob 150 40 100 0 100;
#X obj 27 267 ofelia_XYpad 270 40 100 100 0 200 0 200;
#X msg 290 421 setPosition 30 100 \, setSize 420 550 \, create;
#X obj 666 203 r \$0-envelope;
#X obj 595 202 +~ 1;
#X obj 596 176 *~ 100;
#X obj 595 92 *~ 16;
#X obj 578 277 *~ 2048;
#X obj 596 64 phasor~ 0.4;
#X obj 535 134 *~ 600;
#X obj 536 301 +~ 1;
#X obj 578 301 +~ 56;
#X floatatom 145 396 5 0 0 0 - - -;
#X floatatom 142 458 5 0 0 0 - - -;
#X floatatom 143 520 5 0 0 0 - - -;
#X obj 145 416 s \$0-sequence;
#X obj 142 478 s \$0-envelope;
#X obj 143 540 s \$0-sample;
#X obj 28 499 ofelia_arraySlider 50 410 4 100 0 10 80;
#X obj 27 437 ofelia_arraySlider 50 290 4 100 0 10 80;
#X obj 27 375 ofelia_arraySlider 50 170 10 100 0 10 32;
#X connect 1 0 5 0;
#X connect 3 0 84 0;
#X connect 4 0 6 0;
#X connect 5 0 4 0;
#X connect 7 0 1 0;
#X connect 8 0 81 0;
#X connect 9 0 13 0;
#X connect 10 0 11 0;
#X connect 10 1 12 0;
#X connect 11 0 22 0;
#X connect 12 0 23 0;
#X connect 13 0 83 1;
#X connect 14 0 15 0;
#X connect 15 0 9 0;
#X connect 15 1 13 1;
#X connect 16 0 24 0;
#X connect 17 0 81 1;
#X connect 18 0 21 0;
#X connect 19 0 82 1;
#X connect 25 0 26 0;
#X connect 26 0 52 0;
#X connect 27 0 87 0;
#X connect 28 0 29 0;
#X connect 29 0 31 0;
#X connect 29 0 30 0;
#X connect 30 0 92 0;
#X connect 31 0 89 0;
#X connect 39 0 80 0;
#X connect 40 0 39 0;
#X connect 41 0 78 0;
#X connect 42 0 79 0;
#X connect 43 0 42 0;
#X connect 44 0 46 0;
#X connect 45 0 54 1;
#X connect 46 0 45 0;
#X connect 47 0 55 0;
#X connect 48 0 51 0;
#X connect 49 0 53 1;
#X connect 50 0 49 0;
#X connect 51 0 50 0;
#X connect 52 0 56 0;
#X connect 53 0 62 0;
#X connect 54 0 59 0;
#X connect 55 0 58 0;
#X connect 56 0 53 0;
#X connect 56 0 75 0;
#X connect 56 0 76 0;
#X connect 57 0 54 0;
#X connect 58 0 57 0;
#X connect 59 0 60 0;
#X connect 60 0 52 1;
#X connect 62 0 61 0;
#X connect 66 0 48 0;
#X connect 67 0 47 0;
#X connect 68 0 44 0;
#X connect 69 0 73 0;
#X connect 70 0 74 0;
#X connect 70 0 71 0;
#X connect 71 0 72 0;
#X connect 73 0 70 0;
#X connect 74 0 72 1;
#X connect 75 0 71 1;
#X connect 76 0 74 1;
#X connect 77 0 69 0;
#X connect 78 0 31 1;
#X connect 79 0 25 1;
#X connect 80 0 91 0;
#X connect 81 0 82 0;
#X connect 81 1 16 0;
#X connect 82 0 83 0;
#X connect 82 1 18 0;
#X connect 83 0 102 0;
#X connect 83 1 10 0;
#X connect 84 0 0 0;
#X connect 85 0 41 0;
#X connect 86 0 78 0;
#X connect 87 0 86 0;
#X connect 88 0 27 0;
#X connect 88 0 80 0;
#X connect 89 0 93 0;
#X connect 90 0 88 0;
#X connect 91 0 28 0;
#X connect 92 0 25 0;
#X connect 93 0 79 0;
#X connect 94 0 97 0;
#X connect 95 0 98 0;
#X connect 96 0 99 0;
#X connect 100 1 96 0;
#X connect 101 0 100 0;
#X connect 101 1 95 0;
#X connect 102 0 101 0;
#X connect 102 1 94 0;
