#N canvas 397 236 1095 793 10;
#X declare -path ofelia/abs;
#X obj 388 578 ofWindow;
#X msg 388 624 bang;
#X obj 388 511 declare -path ofelia/abs;
#X obj 388 532 loadbang;
#X obj 388 667 pdcontrol;
#X msg 388 647 dir 0 data/DejaVuSansMono.ttf;
#X obj 388 688 ofelia f \; ofSetWindowTitle("Ofelia GUI Jona") \; ofSetBackgroundColor(55)
\; font = ofTrueTypeFont() \; font:load(a \, 24) \;;
#X obj 388 601 ofSetup;
#X obj 65 18 ofDraw;
#X obj 326 140 nbx 5 14 -1e+37 1e+37 0 1 empty empty empty 0 -8 0 10
-262144 -1 -1 0.075 256;
#X obj 326 201 unpack f f;
#X obj 326 222 nbx 5 14 -1e+37 1e+37 0 0 empty empty empty 0 -8 0 10
-262144 -1 -1 0.075 256;
#X obj 401 222 nbx 5 14 -1e+37 1e+37 0 0 empty empty empty 0 -8 0 10
-262144 -1 -1 350 256;
#X obj 326 159 pack f f;
#X obj 326 100 nbx 5 14 -1e+37 1e+37 0 1 empty empty empty 0 -8 0 10
-262144 -1 -1 350 256;
#X obj 326 119 t b f;
#X obj 230 60 nbx 5 14 -1e+37 1e+37 0 0 empty empty empty 0 -8 0 10
-262144 -1 -1 0 256;
#X obj 230 20 nbx 5 14 -1e+37 1e+37 0 1 empty empty empty 0 -8 0 10
-262144 -1 -1 0 256;
#X text 835 179 envelope sample;
#X obj 230 79 s \$0-feedback;
#X obj 326 241 s \$0-circleFrequency;
#X obj 460 242 s \$0-circleDepth;
#X obj 535 429 *~;
#X obj 595 155 wrap~;
#X obj 536 155 phasor~;
#X obj 577 253 *~;
#X text 636 92 main loop: sawtooth of amplitude 9;
#X text 685 124 read frequency sequence;
#X text 651 154 9x original frequency sawtooth;
#X text 662 179 adjust for reading;
#X text 613 253 multiply envelope by audio-frequency sawtooth;
#X text 636 284 adjust amplitude and center for wavetable;
#X text 607 352 multiply by raised-cosine smoothing function;
#X msg 536 37 set \$1-arraySlider;
#X obj 536 16 r \$0-sequence;
#X msg 666 224 set \$1-arraySlider;
#X msg 647 325 set \$1-arraySlider;
#X obj 647 304 r \$0-sample;
#X floatatom 750 454 0 0 0 0 - - -;
#X obj 750 523 line~;
#X obj 750 500 pack 0 100;
#X obj 750 477 * 0.01;
#X text 791 451 <= feedback (hundredths);
#X obj 749 431 r \$0-feedback;
#X obj 716 31 r \$0-circleFrequency;
#X obj 325 44 r \$0-circleDepth;
#X obj 704 625 dac~;
#X obj 595 226 tabread4~;
#X obj 577 324 tabread4~;
#X obj 536 113 tabread~;
#X obj 666 203 r \$0-envelope;
#X obj 535 406 +~ 1;
#X floatatom 183 283 5 0 0 0 - - -;
#X floatatom 180 450 5 0 0 0 - - -;
#X floatatom 180 616 5 0 0 0 - - -;
#X obj 183 303 s \$0-sequence;
#X obj 180 470 s \$0-envelope;
#X obj 180 636 s \$0-sample;
#X obj 65 408 ofelia_bang 20 250 20;
#X msg 245 386 set \$1-arraySlider;
#X obj 245 365 r \$0-sequence;
#X obj 200 408 tabwrite~;
#X msg 245 552 set \$1-arraySlider;
#X obj 200 574 tabwrite~;
#X obj 245 531 r \$0-envelope;
#X obj 65 574 ofelia_bang 20 370 20;
#X msg 245 711 set \$1-arraySlider;
#X obj 200 733 tabwrite~;
#X obj 200 690 +~ 0.5;
#X obj 65 733 ofelia_bang 20 490 20;
#X obj 245 690 r \$0-sample;
#X obj 91 700 *~;
#X obj 92 616 random 5000;
#X obj 31 645 t b b b;
#X obj 106 658 random 5000;
#X obj 106 679 osc~;
#X obj 92 637 osc~;
#X obj 101 533 *~;
#X obj 41 478 t b b b;
#X obj 116 512 osc~;
#X obj 102 470 osc~;
#X obj 535 134 *~ 400;
#X obj 65 39 ofelia_vKnob 50 50 100 0 100;
#X obj 102 449 random 5;
#X obj 116 491 random 500;
#X obj 200 511 /~ 4;
#X obj 200 531 +~ 0.25;
#X obj 670 594 *~ 0.5;
#X obj 731 594 *~ 0.5;
#X obj 596 64 phasor~ 0.1;
#X obj 693 540 *~;
#X obj 416 388 *~;
#X obj 417 264 random 5000;
#X obj 356 312 t b b b;
#X obj 431 325 random 5000;
#X obj 431 367 osc~;
#X obj 417 304 osc~;
#X obj 416 429 +~ 0.5;
#X obj 595 92 *~ 80;
#X obj 578 277 *~ 1024;
#X obj 536 186 -~ 0.5;
#X obj 595 202 +~ 1;
#X obj 596 176 *~ 400;
#X obj 577 300 +~ 64;
#X obj 693 517 lop~ 800;
#X obj 416 409 /~ 4;
#X obj 417 283 + 5000;
#X obj 431 346 + 5000;
#X obj 200 670 /~ 2;
#X obj 65 429 ofelia_arraySlider 50 290 8 100 0 10 80;
#X obj 65 262 ofelia_arraySlider 50 170 8 100 0 10 80;
#X obj 65 595 ofelia_arraySlider 50 410 8 100 0 10 80;
#X obj 65 179 ofelia_XYpad 590 50 100 100 0.05 0.1 100 600;
#X msg 388 555 setPosition 30 100 \, setSize 740 550 \, create;
#X obj 535 383 expr~ cos(2 * 3.14159 * $v1);
#X obj 693 494 hip~ 5;
#X obj 670 571 hip~ 3;
#X obj 730 571 hip~ 3;
#X connect 1 0 5 0;
#X connect 3 0 113 0;
#X connect 4 0 6 0;
#X connect 5 0 4 0;
#X connect 7 0 1 0;
#X connect 8 0 82 0;
#X connect 9 0 13 0;
#X connect 10 0 11 0;
#X connect 10 1 12 0;
#X connect 11 0 20 0;
#X connect 12 0 21 0;
#X connect 13 0 112 1;
#X connect 14 0 15 0;
#X connect 15 0 9 0;
#X connect 15 1 13 1;
#X connect 16 0 19 0;
#X connect 17 0 82 1;
#X connect 22 0 115 0;
#X connect 23 0 102 0;
#X connect 24 0 100 0;
#X connect 25 0 99 0;
#X connect 33 0 49 0;
#X connect 34 0 33 0;
#X connect 35 0 47 0;
#X connect 36 0 48 0;
#X connect 37 0 36 0;
#X connect 38 0 41 0;
#X connect 39 0 90 1;
#X connect 40 0 39 0;
#X connect 41 0 40 0;
#X connect 43 0 38 0;
#X connect 44 0 89 0;
#X connect 45 0 81 1;
#X connect 47 0 25 1;
#X connect 48 0 22 1;
#X connect 49 0 81 0;
#X connect 50 0 35 0;
#X connect 51 0 22 0;
#X connect 52 0 55 0;
#X connect 53 0 56 0;
#X connect 54 0 57 0;
#X connect 58 0 109 0;
#X connect 58 1 93 0;
#X connect 59 0 61 0;
#X connect 60 0 59 0;
#X connect 62 0 63 0;
#X connect 64 0 62 0;
#X connect 65 0 111 0;
#X connect 65 1 78 0;
#X connect 66 0 67 0;
#X connect 68 0 67 0;
#X connect 69 1 73 0;
#X connect 70 0 66 0;
#X connect 71 0 108 0;
#X connect 72 0 76 0;
#X connect 73 0 67 0;
#X connect 73 1 72 0;
#X connect 73 2 74 0;
#X connect 74 0 75 0;
#X connect 75 0 71 1;
#X connect 76 0 71 0;
#X connect 77 0 85 0;
#X connect 78 0 63 0;
#X connect 78 1 83 0;
#X connect 78 2 84 0;
#X connect 79 0 77 1;
#X connect 80 0 77 0;
#X connect 81 0 24 0;
#X connect 82 0 112 0;
#X connect 82 1 16 0;
#X connect 83 0 80 0;
#X connect 84 0 79 0;
#X connect 85 0 86 0;
#X connect 86 0 63 0;
#X connect 87 0 46 0;
#X connect 88 0 46 0;
#X connect 89 0 98 0;
#X connect 90 0 117 0;
#X connect 90 0 116 0;
#X connect 91 0 105 0;
#X connect 92 0 106 0;
#X connect 93 0 61 0;
#X connect 93 1 92 0;
#X connect 93 2 94 0;
#X connect 94 0 107 0;
#X connect 95 0 91 1;
#X connect 96 0 91 0;
#X connect 97 0 61 0;
#X connect 98 0 23 0;
#X connect 98 0 49 0;
#X connect 99 0 103 0;
#X connect 100 0 25 0;
#X connect 100 0 114 0;
#X connect 101 0 47 0;
#X connect 102 0 101 0;
#X connect 103 0 48 0;
#X connect 104 0 90 0;
#X connect 105 0 97 0;
#X connect 106 0 96 0;
#X connect 107 0 95 0;
#X connect 108 0 68 0;
#X connect 109 0 65 0;
#X connect 109 1 53 0;
#X connect 110 0 58 0;
#X connect 110 1 52 0;
#X connect 111 0 69 0;
#X connect 111 1 54 0;
#X connect 112 0 110 0;
#X connect 112 1 10 0;
#X connect 113 0 0 0;
#X connect 114 0 51 0;
#X connect 115 0 104 0;
#X connect 116 0 87 0;
#X connect 117 0 88 0;
