#N canvas 0 22 260 295 10;
#X obj 24 58 unpack f f;
#X obj 81 78 t b f;
#X obj 81 118 f;
#X msg 81 138 1 2 0 \, 0 \$1 3;
#X obj 81 158 vline~;
#X obj 81 178 *~;
#X obj 81 198 *~;
#X obj 24 78 osc~;
#X obj 24 215 *~;
#X obj 24 235 outlet~;
#X obj 24 18 inlet;
#X obj 24 38 t a b;
#X obj 96 98 r \$1-rel.s;
#N canvas 205 94 266 272 switch.logic 0;
#X obj 47 97 f;
#X obj 62 77 r \$1-rel.s;
#X obj 47 117 + 3;
#X obj 47 37 inlet;
#X obj 47 57 t b b;
#X msg 137 74 1;
#X obj 47 137 del;
#X msg 47 158 0;
#X obj 47 197 switch~ 0;
#X connect 0 0 2 0;
#X connect 1 0 0 1;
#X connect 2 0 6 0;
#X connect 3 0 4 0;
#X connect 4 0 0 0;
#X connect 4 1 5 0;
#X connect 5 0 8 0;
#X connect 6 0 7 0;
#X connect 7 0 8 0;
#X restore 94 55 pd switch.logic;
#X connect 0 0 7 0;
#X connect 0 1 1 0;
#X connect 1 0 2 0;
#X connect 1 1 6 1;
#X connect 2 0 3 0;
#X connect 3 0 4 0;
#X connect 4 0 5 1;
#X connect 4 0 5 0;
#X connect 5 0 6 0;
#X connect 6 0 8 1;
#X connect 7 0 8 0;
#X connect 8 0 9 0;
#X connect 10 0 11 0;
#X connect 11 0 0 0;
#X connect 11 1 13 0;
#X connect 12 0 2 1;
