#N canvas 797 109 634 818 10;
#X declare -path ofelia/abs;
#X obj 321 380 ofWindow;
#X msg 321 426 bang;
#X obj 321 313 declare -path ofelia/abs;
#X msg 321 357 setPosition 30 100 \, setSize 640 360 \, create;
#X obj 321 334 loadbang;
#X obj 321 469 pdcontrol;
#X msg 321 449 dir 0 data/DejaVuSansMono.ttf;
#X obj 35 340 ofelia_toggle 100 70 40;
#X obj 164 443 bng 15 250 50 0 empty empty empty 17 7 0 10 -262144
-1 -1;
#X obj 35 137 ofelia_vRadio 350 30 7 20;
#X obj 35 299 ofelia_vSlider 50 70 40 200 0 10;
#X obj 35 422 ofelia_bang 100 150 40;
#X obj 164 463 random 1000;
#X obj 164 484 s \$0-number;
#X obj 170 381 s \$0-number;
#X obj 224 340 s \$0-number2;
#X obj 164 546 bng 15 250 50 0 empty empty empty 17 7 0 10 -262144
-1 -1;
#X obj 164 587 s \$0-number2;
#X obj 164 566 random 1e+06;
#X obj 35 525 ofelia_bang 420 50 200;
#X obj 182 178 s \$0-number;
#X obj 182 158 nbx 5 14 -1e+37 1e+37 0 0 empty empty empty 0 -8 0 10
-262144 -1 -1 2 256;
#X obj 248 714 nbx 8 14 -1e+37 1e+37 0 0 empty empty empty 0 -8 0 10
-262144 -1 -1 40709 256;
#X obj 266 651 nbx 8 14 -1e+37 1e+37 0 0 empty empty empty 0 -8 0 10
-262144 -1 -1 284 256;
#X obj 170 361 nbx 5 14 -1e+37 1e+37 0 0 empty empty empty 0 -8 0 10
-262144 -1 -1 1 256;
#X obj 224 320 nbx 5 14 -1e+37 1e+37 0 0 empty empty empty 0 -8 0 10
-262144 -1 -1 8 256;
#X msg 194 754 symbol GUI;
#X obj 35 33 ofDraw;
#X obj 35 56 ofelia_hRadio 50 300 12 40;
#X obj 188 97 s \$0-number2;
#X obj 188 77 nbx 5 14 -1e+37 1e+37 0 0 empty empty empty 0 -8 0 10
-262144 -1 -1 7 256;
#X obj 224 280 nbx 5 14 -1e+37 1e+37 0 1 empty empty empty 0 -8 0 10
-262144 -1 -1 8 256;
#X obj 164 402 bng 15 250 50 0 empty empty empty 17 7 0 10 -262144
-1 -1;
#X obj 182 118 nbx 5 14 -1e+37 1e+37 0 1 empty empty empty 0 -8 0 10
-262144 -1 -1 2 256;
#X obj 170 320 tgl 15 1 empty empty empty 17 7 0 10 -262144 -1 -1 1
1;
#X obj 266 608 r \$0-number;
#X obj 248 671 r \$0-number2;
#X obj 164 505 bng 15 250 50 0 empty empty empty 17 7 0 10 -262144
-1 -1;
#X obj 188 37 nbx 5 14 -1e+37 1e+37 0 1 empty empty empty 0 -8 0 10
-262144 -1 -1 7 256;
#X obj 35 630 ofelia_number 150 180 250 50 -1000 1000;
#X obj 35 693 ofelia_number 150 240 250 50 0 1e+06;
#X obj 35 218 ofelia_hSlider 200 50 120 40 0 1000;
#X obj 242 239 nbx 5 14 -1e+37 1e+37 0 0 empty empty empty 0 -8 0 10
-262144 -1 -1 300 256;
#X obj 242 199 nbx 5 14 -1e+37 1e+37 0 1 empty empty empty 0 -8 0 10
-262144 -1 -1 300 256;
#X obj 242 259 s \$0-number;
#X obj 35 775 ofelia_label 160 100 150 70;
#X obj 321 490 ofelia f \; ofSetWindowTitle("Ofelia GUI Jona") \; ofSetBackgroundColor(55)
\; font = ofTrueTypeFont() \; font:load(a \, 24) \;;
#X obj 321 403 ofSetup;
#X obj 194 732 loadbang;
#X connect 1 0 6 0;
#X connect 3 0 0 0;
#X connect 4 0 3 0;
#X connect 5 0 46 0;
#X connect 6 0 5 0;
#X connect 7 0 11 0;
#X connect 7 1 24 0;
#X connect 8 0 12 0;
#X connect 9 0 41 0;
#X connect 9 1 21 0;
#X connect 10 0 7 0;
#X connect 10 1 25 0;
#X connect 11 0 19 0;
#X connect 11 1 8 0;
#X connect 12 0 13 0;
#X connect 16 0 18 0;
#X connect 18 0 17 0;
#X connect 19 0 39 0;
#X connect 19 1 16 0;
#X connect 21 0 20 0;
#X connect 24 0 14 0;
#X connect 25 0 15 0;
#X connect 26 0 45 1;
#X connect 27 0 28 0;
#X connect 28 0 9 0;
#X connect 28 1 30 0;
#X connect 30 0 29 0;
#X connect 31 0 10 1;
#X connect 32 0 11 1;
#X connect 33 0 9 1;
#X connect 34 0 7 1;
#X connect 35 0 39 1;
#X connect 36 0 40 1;
#X connect 37 0 19 1;
#X connect 38 0 28 1;
#X connect 39 0 40 0;
#X connect 39 1 23 0;
#X connect 40 0 45 0;
#X connect 40 1 22 0;
#X connect 41 0 10 0;
#X connect 41 1 42 0;
#X connect 42 0 44 0;
#X connect 43 0 41 1;
#X connect 47 0 1 0;
#X connect 48 0 26 0;
